<svg preserveAspectRatio="none" width="100%" height="100%" overflow="visible" style="display: block;" viewBox="0 0 20 20" fill="none" xmlns="http://www.w3.org/2000/svg">
<g id="facebook-line">
<path id="Vector" d="M10.834 7.50033H14.584L14.1673 9.16699H10.834V16.667H9.16732V9.16699H5.83398V7.50033H9.16732V5.94013C9.16732 4.45427 9.32207 3.91546 9.61257 3.37225C9.90307 2.82904 10.3294 2.40273 10.8726 2.11222C11.4158 1.8217 11.9546 1.66699 13.4405 1.66699C13.8755 1.66699 14.2567 1.70866 14.584 1.79199V3.33366H13.4405C12.3374 3.33366 12.0015 3.39853 11.6586 3.5819C11.4058 3.71708 11.2174 3.90548 11.0822 4.15825C10.8988 4.50113 10.834 4.83705 10.834 5.94013V7.50033Z" fill="var(--fill-0, white)"/>
</g>
</svg>
