<svg preserveAspectRatio="none" width="100%" height="100%" overflow="visible" style="display: block;" viewBox="0 0 20 20" fill="none" xmlns="http://www.w3.org/2000/svg">
<g id="instagram-line">
<path id="Vector" d="M10.0013 7.50033C8.62015 7.50033 7.5013 8.61958 7.5013 10.0003C7.5013 11.3814 8.62057 12.5003 10.0013 12.5003C11.3824 12.5003 12.5013 11.3811 12.5013 10.0003C12.5013 8.61924 11.3821 7.50033 10.0013 7.50033ZM10.0013 5.83366C12.3017 5.83366 14.168 7.69791 14.168 10.0003C14.168 12.3007 12.3037 14.167 10.0013 14.167C7.70091 14.167 5.83464 12.3027 5.83464 10.0003C5.83464 7.69993 7.69889 5.83366 10.0013 5.83366ZM15.418 5.62462C15.418 6.19971 14.9507 6.6663 14.3763 6.6663C13.8012 6.6663 13.3347 6.19899 13.3347 5.62462C13.3347 5.05024 13.8019 4.58366 14.3763 4.58366C14.9499 4.58293 15.418 5.05024 15.418 5.62462ZM10.0013 3.33366C7.93924 3.33366 7.60314 3.33912 6.64404 3.38183C5.99061 3.4125 5.55259 3.50038 5.14562 3.65838C4.78395 3.79865 4.52306 3.96614 4.24509 4.24412C3.96604 4.52316 3.79885 4.78335 3.65915 5.14518C3.50079 5.55309 3.41293 5.99042 3.3828 6.64295C3.33968 7.56299 3.33464 7.88453 3.33464 10.0003C3.33464 12.0624 3.34009 12.3985 3.38279 13.3575C3.41349 14.0107 3.50149 14.4493 3.6591 14.8553C3.79974 15.2175 3.96757 15.479 4.2442 15.7557C4.52434 16.0354 4.78531 16.2032 5.14371 16.3415C5.55564 16.5007 5.99339 16.5887 6.64392 16.6188C7.56397 16.6619 7.88551 16.667 10.0013 16.667C12.0634 16.667 12.3995 16.6615 13.3585 16.6188C14.0102 16.5882 14.4492 16.5 14.8563 16.3425C15.2175 16.2022 15.4798 16.0338 15.7567 15.7574C16.0368 15.4768 16.2042 15.2165 16.3427 14.8572C16.5016 14.4468 16.5897 14.0085 16.6198 13.3577C16.6629 12.4377 16.668 12.1161 16.668 10.0003C16.668 7.93826 16.6625 7.60217 16.6198 6.64313C16.5892 5.99121 16.5009 5.55157 16.3432 5.14464C16.2033 4.78398 16.0352 4.52228 15.7575 4.24412C15.478 3.96462 15.2185 3.79777 14.8564 3.65818C14.4488 3.49994 14.0108 3.41196 13.3587 3.38183C12.4387 3.3387 12.1171 3.33366 10.0013 3.33366ZM10.0013 1.66699C12.2652 1.66699 12.5478 1.67533 13.4367 1.71699C14.3235 1.75797 14.9284 1.89824 15.4597 2.10449C16.0089 2.3163 16.4728 2.60241 16.936 3.0656C17.3985 3.5288 17.6847 3.99408 17.8972 4.54199C18.1027 5.07255 18.243 5.6781 18.2847 6.56491C18.3242 7.4538 18.3347 7.73643 18.3347 10.0003C18.3347 12.2642 18.3263 12.5468 18.2847 13.4357C18.2437 14.3226 18.1027 14.9274 17.8972 15.4587C17.6853 16.008 17.3985 16.4718 16.936 16.9351C16.4728 17.3976 16.0068 17.6837 15.4597 17.8962C14.9284 18.1017 14.3235 18.242 13.4367 18.2837C12.5478 18.3232 12.2652 18.3337 10.0013 18.3337C7.73741 18.3337 7.45477 18.3253 6.56589 18.2837C5.67908 18.2427 5.07491 18.1017 4.54297 17.8962C3.99435 17.6843 3.52977 17.3976 3.06658 16.9351C2.60339 16.4718 2.31797 16.0059 2.10547 15.4587C1.89922 14.9274 1.75964 14.3226 1.71797 13.4357C1.67839 12.5468 1.66797 12.2642 1.66797 10.0003C1.66797 7.73643 1.6763 7.4538 1.71797 6.56491C1.75894 5.67741 1.89922 5.07324 2.10547 4.54199C2.31727 3.99338 2.60339 3.5288 3.06658 3.0656C3.52977 2.60241 3.99505 2.31699 4.54297 2.10449C5.07422 1.89824 5.67839 1.75866 6.56589 1.71699C7.45477 1.67741 7.73741 1.66699 10.0013 1.66699Z" fill="var(--fill-0, white)"/>
</g>
</svg>
