<svg preserveAspectRatio="none" width="100%" height="100%" overflow="visible" style="display: block;" viewBox="0 0 20 20" fill="none" xmlns="http://www.w3.org/2000/svg">
<g id="linkedin-line">
<path id="Vector" d="M10.0013 7.9587C10.7656 7.17805 11.7606 6.66699 12.918 6.66699C15.4492 6.66699 17.5013 8.71899 17.5013 11.2503V17.5003H15.8347V11.2503C15.8347 9.63949 14.5288 8.33366 12.918 8.33366C11.3072 8.33366 10.0013 9.63949 10.0013 11.2503V17.5003H8.33465V7.08366H10.0013V7.9587ZM4.16797 5.41699C3.47761 5.41699 2.91797 4.85735 2.91797 4.16699C2.91797 3.47663 3.47761 2.91699 4.16797 2.91699C4.85832 2.91699 5.41797 3.47663 5.41797 4.16699C5.41797 4.85735 4.85832 5.41699 4.16797 5.41699ZM3.33464 7.08366H5.0013V17.5003H3.33464V7.08366Z" fill="var(--fill-0, white)"/>
</g>
</svg>
