<svg preserveAspectRatio="none" width="100%" height="100%" overflow="visible" style="display: block;" viewBox="0 0 35.713 35.713" fill="none" xmlns="http://www.w3.org/2000/svg">
<g id="Icon">
<path id="Vector" d="M23.8094 4.46417C23.0201 4.46417 22.2631 4.77772 21.705 5.33585C21.1469 5.89397 20.8333 6.65095 20.8333 7.44026V16.3685C20.8333 17.1578 21.1469 17.9148 21.705 18.4729C22.2631 19.031 23.0201 19.3446 23.8094 19.3446C24.2041 19.3446 24.5825 19.5014 24.8616 19.7804C25.1407 20.0595 25.2974 20.438 25.2974 20.8326V22.3207C25.2974 23.11 24.9839 23.867 24.4258 24.4251C23.8676 24.9832 23.1107 25.2968 22.3214 25.2968C21.9267 25.2968 21.5482 25.4535 21.2692 25.7326C20.9901 26.0117 20.8333 26.3902 20.8333 26.7848V29.7609C20.8333 30.1555 20.9901 30.534 21.2692 30.8131C21.5482 31.0922 21.9267 31.2489 22.3214 31.2489C24.6893 31.2489 26.9602 30.3083 28.6346 28.6339C30.309 26.9595 31.2496 24.6886 31.2496 22.3207V7.44026C31.2496 6.65095 30.9361 5.89397 30.3779 5.33585C29.8198 4.77772 29.0628 4.46417 28.2735 4.46417H23.8094Z" stroke="var(--stroke-0, #FFC107)" stroke-width="2.97609" stroke-linecap="round" stroke-linejoin="round"/>
<path id="Vector_2" d="M7.44055 4.46417C6.65124 4.46417 5.89426 4.77772 5.33614 5.33585C4.77801 5.89397 4.46446 6.65095 4.46446 7.44026V16.3685C4.46446 17.1578 4.77801 17.9148 5.33614 18.4729C5.89426 19.031 6.65124 19.3446 7.44055 19.3446C7.8352 19.3446 8.21369 19.5014 8.49275 19.7804C8.77182 20.0595 8.92859 20.438 8.92859 20.8326V22.3207C8.92859 23.11 8.61504 23.867 8.05692 24.4251C7.49879 24.9832 6.74181 25.2968 5.95251 25.2968C5.55785 25.2968 5.17936 25.4535 4.9003 25.7326C4.62124 26.0117 4.46446 26.3902 4.46446 26.7848V29.7609C4.46446 30.1555 4.62124 30.534 4.9003 30.8131C5.17936 31.0922 5.55785 31.2489 5.95251 31.2489C8.32043 31.2489 10.5914 30.3083 12.2657 28.6339C13.9401 26.9595 14.8808 24.6886 14.8808 22.3207V7.44026C14.8808 6.65095 14.5672 5.89397 14.0091 5.33585C13.451 4.77772 12.694 4.46417 11.9047 4.46417H7.44055Z" stroke="var(--stroke-0, #FFC107)" stroke-width="2.97609" stroke-linecap="round" stroke-linejoin="round"/>
</g>
</svg>
