<svg preserveAspectRatio="none" width="100%" height="100%" overflow="visible" style="display: block;" viewBox="0 0 20.4074 20.4074" fill="none" xmlns="http://www.w3.org/2000/svg">
<g id="Icon">
<path id="Vector" d="M9.79938 1.95168C9.83664 1.87639 9.8942 1.81302 9.96557 1.76871C10.0369 1.7244 10.1193 1.70093 10.2033 1.70093C10.2873 1.70093 10.3696 1.7244 10.441 1.76871C10.5123 1.81302 10.5699 1.87639 10.6072 1.95168L12.5714 5.93028C12.7008 6.19214 12.8918 6.4187 13.128 6.5905C13.3642 6.7623 13.6386 6.87422 13.9276 6.91664L18.3203 7.55947C18.4036 7.57153 18.4818 7.60664 18.5461 7.66083C18.6104 7.71501 18.6583 7.78612 18.6843 7.8661C18.7103 7.94608 18.7134 8.03174 18.6933 8.11339C18.6731 8.19505 18.6305 8.26944 18.5703 8.32815L15.3936 11.4216C15.1841 11.6257 15.0273 11.8778 14.9368 12.1559C14.8463 12.4341 14.8248 12.7301 14.874 13.0185L15.624 17.3891C15.6387 17.4722 15.6297 17.5579 15.5981 17.6362C15.5664 17.7146 15.5134 17.7824 15.445 17.8321C15.3767 17.8817 15.2958 17.9111 15.2115 17.917C15.1272 17.9229 15.043 17.9049 14.9684 17.8652L11.0417 15.8007C10.7829 15.6648 10.4951 15.5938 10.2028 15.5938C9.91061 15.5938 9.62275 15.6648 9.36402 15.8007L5.43814 17.8652C5.36359 17.9047 5.27947 17.9224 5.19533 17.9165C5.1112 17.9105 5.03043 17.881 4.96221 17.8314C4.894 17.7818 4.84108 17.714 4.80946 17.6358C4.77785 17.5576 4.76882 17.4721 4.7834 17.3891L5.53252 13.0193C5.582 12.7308 5.56057 12.4346 5.47005 12.1563C5.37954 11.8779 5.22267 11.6258 5.01298 11.4216L1.83622 8.329C1.7755 8.27036 1.73248 8.19584 1.71204 8.11394C1.69161 8.03203 1.69459 7.94604 1.72065 7.86574C1.7467 7.78545 1.79478 7.71409 1.85942 7.65979C1.92405 7.60549 2.00263 7.57044 2.08621 7.55862L6.47806 6.91664C6.76739 6.87455 7.04215 6.76278 7.2787 6.59096C7.51526 6.41913 7.70651 6.1924 7.83601 5.93028L9.79938 1.95168Z" fill="var(--fill-0, #FFC107)" stroke="var(--stroke-0, #FFC107)" stroke-width="1.70062" stroke-linecap="round" stroke-linejoin="round"/>
</g>
</svg>
