<svg preserveAspectRatio="none" width="100%" height="100%" overflow="visible" style="display: block;" viewBox="0 0 20.4074 20.4074" fill="none" xmlns="http://www.w3.org/2000/svg">
<g id="Icon">
<path id="Vector" d="M9.79973 1.95168C9.83699 1.87639 9.89456 1.81302 9.96593 1.76871C10.0373 1.7244 10.1196 1.70093 10.2036 1.70093C10.2876 1.70093 10.37 1.7244 10.4413 1.76871C10.5127 1.81302 10.5703 1.87639 10.6075 1.95168L12.5717 5.93028C12.7011 6.19214 12.8921 6.4187 13.1284 6.5905C13.3646 6.7623 13.639 6.87422 13.928 6.91664L18.3207 7.55947C18.4039 7.57153 18.4821 7.60664 18.5464 7.66083C18.6108 7.71501 18.6586 7.78612 18.6846 7.8661C18.7106 7.94608 18.7138 8.03174 18.6936 8.11339C18.6735 8.19505 18.6309 8.26944 18.5707 8.32815L15.3939 11.4216C15.1844 11.6257 15.0277 11.8778 14.9372 12.1559C14.8467 12.4341 14.8251 12.7301 14.8744 13.0185L15.6244 17.3891C15.639 17.4722 15.6301 17.5579 15.5984 17.6362C15.5668 17.7146 15.5138 17.7824 15.4454 17.8321C15.377 17.8817 15.2961 17.9111 15.2118 17.917C15.1276 17.9229 15.0433 17.9049 14.9688 17.8652L11.042 15.8007C10.7833 15.6648 10.4954 15.5938 10.2032 15.5938C9.91097 15.5938 9.62311 15.6648 9.36437 15.8007L5.43849 17.8652C5.36395 17.9047 5.27982 17.9224 5.19569 17.9165C5.11155 17.9105 5.03078 17.881 4.96257 17.8314C4.89435 17.7818 4.84143 17.714 4.80982 17.6358C4.77821 17.5576 4.76918 17.4721 4.78375 17.3891L5.53288 13.0193C5.58236 12.7308 5.56092 12.4346 5.47041 12.1563C5.3799 11.8779 5.22303 11.6258 5.01334 11.4216L1.83658 8.329C1.77586 8.27036 1.73283 8.19584 1.7124 8.11394C1.69197 8.03203 1.69495 7.94604 1.721 7.86574C1.74706 7.78545 1.79514 7.71409 1.85977 7.65979C1.9244 7.60549 2.00299 7.57044 2.08657 7.55862L6.47842 6.91664C6.76774 6.87455 7.04251 6.76278 7.27906 6.59096C7.51561 6.41913 7.70687 6.1924 7.83637 5.93028L9.79973 1.95168Z" fill="var(--fill-0, #FFC107)" stroke="var(--stroke-0, #FFC107)" stroke-width="1.70062" stroke-linecap="round" stroke-linejoin="round"/>
</g>
</svg>
