<svg preserveAspectRatio="none" width="100%" height="100%" overflow="visible" style="display: block;" viewBox="0 0 20.4074 20.4074" fill="none" xmlns="http://www.w3.org/2000/svg">
<g id="Icon">
<path id="Vector" d="M9.80023 1.95168C9.83749 1.87639 9.89505 1.81302 9.96642 1.76871C10.0378 1.7244 10.1201 1.70093 10.2041 1.70093C10.2881 1.70093 10.3705 1.7244 10.4418 1.76871C10.5132 1.81302 10.5708 1.87639 10.608 1.95168L12.5722 5.93028C12.7016 6.19214 12.8926 6.4187 13.1289 6.5905C13.3651 6.7623 13.6395 6.87422 13.9285 6.91664L18.3212 7.55947C18.4044 7.57153 18.4826 7.60664 18.5469 7.66083C18.6113 7.71501 18.6591 7.78612 18.6851 7.8661C18.7111 7.94608 18.7143 8.03174 18.6941 8.11339C18.674 8.19505 18.6314 8.26944 18.5712 8.32815L15.3944 11.4216C15.1849 11.6257 15.0282 11.8778 14.9377 12.1559C14.8472 12.4341 14.8256 12.7301 14.8749 13.0185L15.6249 17.3891C15.6395 17.4722 15.6306 17.5579 15.5989 17.6362C15.5673 17.7146 15.5143 17.7824 15.4459 17.8321C15.3775 17.8817 15.2966 17.9111 15.2123 17.917C15.1281 17.9229 15.0438 17.9049 14.9693 17.8652L11.0425 15.8007C10.7838 15.6648 10.4959 15.5938 10.2037 15.5938C9.91146 15.5938 9.6236 15.6648 9.36487 15.8007L5.43899 17.8652C5.36444 17.9047 5.28032 17.9224 5.19618 17.9165C5.11205 17.9105 5.03128 17.881 4.96306 17.8314C4.89485 17.7818 4.84193 17.714 4.81031 17.6358C4.7787 17.5576 4.76967 17.4721 4.78425 17.3891L5.53337 13.0193C5.58286 12.7308 5.56142 12.4346 5.4709 12.1563C5.38039 11.8779 5.22352 11.6258 5.01383 11.4216L1.83707 8.329C1.77636 8.27036 1.73333 8.19584 1.7129 8.11394C1.69246 8.03203 1.69544 7.94604 1.7215 7.86574C1.74755 7.78545 1.79563 7.71409 1.86027 7.65979C1.9249 7.60549 2.00348 7.57044 2.08706 7.55862L6.47892 6.91664C6.76824 6.87455 7.043 6.76278 7.27955 6.59096C7.51611 6.41913 7.70736 6.1924 7.83686 5.93028L9.80023 1.95168Z" fill="var(--fill-0, #FFC107)" stroke="var(--stroke-0, #FFC107)" stroke-width="1.70062" stroke-linecap="round" stroke-linejoin="round"/>
</g>
</svg>
