<svg preserveAspectRatio="none" width="100%" height="100%" overflow="visible" style="display: block;" viewBox="0 0 35.713 35.713" fill="none" xmlns="http://www.w3.org/2000/svg">
<g id="Icon">
<path id="Vector" d="M23.8089 4.46417C23.0196 4.46417 22.2626 4.77772 21.7045 5.33585C21.1463 5.89397 20.8328 6.65095 20.8328 7.44026V16.3685C20.8328 17.1578 21.1463 17.9148 21.7045 18.4729C22.2626 19.031 23.0196 19.3446 23.8089 19.3446C24.2035 19.3446 24.582 19.5014 24.8611 19.7804C25.1401 20.0595 25.2969 20.438 25.2969 20.8326V22.3207C25.2969 23.11 24.9834 23.867 24.4252 24.4251C23.8671 24.9832 23.1101 25.2968 22.3208 25.2968C21.9262 25.2968 21.5477 25.4535 21.2686 25.7326C20.9896 26.0117 20.8328 26.3902 20.8328 26.7848V29.7609C20.8328 30.1555 20.9896 30.534 21.2686 30.8131C21.5477 31.0922 21.9262 31.2489 22.3208 31.2489C24.6887 31.2489 26.9597 30.3083 28.634 28.6339C30.3084 26.9595 31.2491 24.6886 31.2491 22.3207V7.44026C31.2491 6.65095 30.9355 5.89397 30.3774 5.33585C29.8193 4.77772 29.0623 4.46417 28.273 4.46417H23.8089Z" stroke="var(--stroke-0, #FFC107)" stroke-width="2.97609" stroke-linecap="round" stroke-linejoin="round"/>
<path id="Vector_2" d="M7.4405 4.46417C6.65119 4.46417 5.89422 4.77772 5.33609 5.33585C4.77797 5.89397 4.46442 6.65095 4.46442 7.44026V16.3685C4.46442 17.1578 4.77797 17.9148 5.33609 18.4729C5.89422 19.031 6.65119 19.3446 7.4405 19.3446C7.83515 19.3446 8.21364 19.5014 8.49271 19.7804C8.77177 20.0595 8.92854 20.438 8.92854 20.8326V22.3207C8.92854 23.11 8.61499 23.867 8.05687 24.4251C7.49874 24.9832 6.74177 25.2968 5.95246 25.2968C5.55781 25.2968 5.17932 25.4535 4.90025 25.7326C4.62119 26.0117 4.46442 26.3902 4.46442 26.7848V29.7609C4.46442 30.1555 4.62119 30.534 4.90025 30.8131C5.17932 31.0922 5.55781 31.2489 5.95246 31.2489C8.32038 31.2489 10.5913 30.3083 12.2657 28.6339C13.9401 26.9595 14.8807 24.6886 14.8807 22.3207V7.44026C14.8807 6.65095 14.5672 5.89397 14.009 5.33585C13.4509 4.77772 12.6939 4.46417 11.9046 4.46417H7.4405Z" stroke="var(--stroke-0, #FFC107)" stroke-width="2.97609" stroke-linecap="round" stroke-linejoin="round"/>
</g>
</svg>
