<svg preserveAspectRatio="none" width="100%" height="100%" overflow="visible" style="display: block;" viewBox="0 0 20.4074 20.4074" fill="none" xmlns="http://www.w3.org/2000/svg">
<g id="Icon">
<path id="Vector" d="M9.80007 1.95168C9.83733 1.87639 9.8949 1.81302 9.96627 1.76871C10.0376 1.7244 10.12 1.70093 10.204 1.70093C10.288 1.70093 10.3703 1.7244 10.4417 1.76871C10.513 1.81302 10.5706 1.87639 10.6079 1.95168L12.5721 5.93028C12.7015 6.19214 12.8925 6.4187 13.1287 6.5905C13.3649 6.7623 13.6393 6.87422 13.9283 6.91664L18.321 7.55947C18.4043 7.57153 18.4825 7.60664 18.5468 7.66083C18.6111 7.71501 18.659 7.78612 18.685 7.8661C18.711 7.94608 18.7141 8.03174 18.694 8.11339C18.6738 8.19505 18.6312 8.26944 18.571 8.32815L15.3943 11.4216C15.1848 11.6257 15.028 11.8778 14.9375 12.1559C14.847 12.4341 14.8255 12.7301 14.8747 13.0185L15.6247 17.3891C15.6394 17.4722 15.6304 17.5579 15.5988 17.6362C15.5671 17.7146 15.5141 17.7824 15.4457 17.8321C15.3774 17.8817 15.2965 17.9111 15.2122 17.917C15.1279 17.9229 15.0437 17.9049 14.9691 17.8652L11.0424 15.8007C10.7836 15.6648 10.4958 15.5938 10.2035 15.5938C9.91131 15.5938 9.62345 15.6648 9.36471 15.8007L5.43883 17.8652C5.36428 17.9047 5.28016 17.9224 5.19602 17.9165C5.11189 17.9105 5.03112 17.881 4.96291 17.8314C4.89469 17.7818 4.84177 17.714 4.81016 17.6358C4.77855 17.5576 4.76951 17.4721 4.78409 17.3891L5.53321 13.0193C5.5827 12.7308 5.56126 12.4346 5.47075 12.1563C5.38024 11.8779 5.22337 11.6258 5.01367 11.4216L1.83692 8.329C1.7762 8.27036 1.73317 8.19584 1.71274 8.11394C1.69231 8.03203 1.69529 7.94604 1.72134 7.86574C1.7474 7.78545 1.79548 7.71409 1.86011 7.65979C1.92474 7.60549 2.00332 7.57044 2.08691 7.55862L6.47876 6.91664C6.76808 6.87455 7.04285 6.76278 7.2794 6.59096C7.51595 6.41913 7.7072 6.1924 7.8367 5.93028L9.80007 1.95168Z" fill="var(--fill-0, #FFC107)" stroke="var(--stroke-0, #FFC107)" stroke-width="1.70062" stroke-linecap="round" stroke-linejoin="round"/>
</g>
</svg>
