<svg preserveAspectRatio="none" width="100%" height="100%" overflow="visible" style="display: block;" viewBox="0 0 20.4074 20.4074" fill="none" xmlns="http://www.w3.org/2000/svg">
<g id="Icon">
<path id="Vector" d="M9.79945 1.95168C9.83672 1.87639 9.89428 1.81302 9.96565 1.76871C10.037 1.7244 10.1193 1.70093 10.2034 1.70093C10.2874 1.70093 10.3697 1.7244 10.4411 1.76871C10.5124 1.81302 10.57 1.87639 10.6072 1.95168L12.5715 5.93028C12.7009 6.19214 12.8919 6.4187 13.1281 6.5905C13.3643 6.7623 13.6387 6.87422 13.9277 6.91664L18.3204 7.55947C18.4036 7.57153 18.4818 7.60664 18.5462 7.66083C18.6105 7.71501 18.6583 7.78612 18.6844 7.8661C18.7104 7.94608 18.7135 8.03174 18.6933 8.11339C18.6732 8.19505 18.6306 8.26944 18.5704 8.32815L15.3936 11.4216C15.1841 11.6257 15.0274 11.8778 14.9369 12.1559C14.8464 12.4341 14.8248 12.7301 14.8741 13.0185L15.6241 17.3891C15.6388 17.4722 15.6298 17.5579 15.5981 17.6362C15.5665 17.7146 15.5135 17.7824 15.4451 17.8321C15.3768 17.8817 15.2958 17.9111 15.2116 17.917C15.1273 17.9229 15.0431 17.9049 14.9685 17.8652L11.0418 15.8007C10.783 15.6648 10.4952 15.5938 10.2029 15.5938C9.91069 15.5938 9.62283 15.6648 9.36409 15.8007L5.43821 17.8652C5.36367 17.9047 5.27954 17.9224 5.19541 17.9165C5.11127 17.9105 5.03051 17.881 4.96229 17.8314C4.89408 17.7818 4.84115 17.714 4.80954 17.6358C4.77793 17.5576 4.7689 17.4721 4.78347 17.3891L5.5326 13.0193C5.58208 12.7308 5.56064 12.4346 5.47013 12.1563C5.37962 11.8779 5.22275 11.6258 5.01306 11.4216L1.8363 8.329C1.77558 8.27036 1.73256 8.19584 1.71212 8.11394C1.69169 8.03203 1.69467 7.94604 1.72072 7.86574C1.74678 7.78545 1.79486 7.71409 1.85949 7.65979C1.92413 7.60549 2.00271 7.57044 2.08629 7.55862L6.47814 6.91664C6.76747 6.87455 7.04223 6.76278 7.27878 6.59096C7.51533 6.41913 7.70659 6.1924 7.83609 5.93028L9.79945 1.95168Z" fill="var(--fill-0, #FFC107)" stroke="var(--stroke-0, #FFC107)" stroke-width="1.70062" stroke-linecap="round" stroke-linejoin="round"/>
</g>
</svg>
