<svg preserveAspectRatio="none" width="100%" height="100%" overflow="visible" style="display: block;" viewBox="0 0 20.4074 20.4074" fill="none" xmlns="http://www.w3.org/2000/svg">
<g id="Icon">
<path id="Vector" d="M9.79999 1.95168C9.83725 1.87639 9.89482 1.81302 9.96619 1.76871C10.0376 1.7244 10.1199 1.70093 10.2039 1.70093C10.2879 1.70093 10.3702 1.7244 10.4416 1.76871C10.513 1.81302 10.5705 1.87639 10.6078 1.95168L12.572 5.93028C12.7014 6.19214 12.8924 6.4187 13.1286 6.5905C13.3649 6.7623 13.6392 6.87422 13.9282 6.91664L18.3209 7.55947C18.4042 7.57153 18.4824 7.60664 18.5467 7.66083C18.611 7.71501 18.6589 7.78612 18.6849 7.8661C18.7109 7.94608 18.714 8.03174 18.6939 8.11339C18.6737 8.19505 18.6312 8.26944 18.5709 8.32815L15.3942 11.4216C15.1847 11.6257 15.0279 11.8778 14.9374 12.1559C14.8469 12.4341 14.8254 12.7301 14.8746 13.0185L15.6246 17.3891C15.6393 17.4722 15.6303 17.5579 15.5987 17.6362C15.567 17.7146 15.514 17.7824 15.4457 17.8321C15.3773 17.8817 15.2964 17.9111 15.2121 17.917C15.1278 17.9229 15.0436 17.9049 14.969 17.8652L11.0423 15.8007C10.7836 15.6648 10.4957 15.5938 10.2035 15.5938C9.91123 15.5938 9.62337 15.6648 9.36463 15.8007L5.43875 17.8652C5.36421 17.9047 5.28008 17.9224 5.19595 17.9165C5.11181 17.9105 5.03104 17.881 4.96283 17.8314C4.89461 17.7818 4.84169 17.714 4.81008 17.6358C4.77847 17.5576 4.76944 17.4721 4.78401 17.3891L5.53314 13.0193C5.58262 12.7308 5.56118 12.4346 5.47067 12.1563C5.38016 11.8779 5.22329 11.6258 5.0136 11.4216L1.83684 8.329C1.77612 8.27036 1.73309 8.19584 1.71266 8.11394C1.69223 8.03203 1.69521 7.94604 1.72126 7.86574C1.74732 7.78545 1.7954 7.71409 1.86003 7.65979C1.92466 7.60549 2.00325 7.57044 2.08683 7.55862L6.47868 6.91664C6.768 6.87455 7.04277 6.76278 7.27932 6.59096C7.51587 6.41913 7.70713 6.1924 7.83663 5.93028L9.79999 1.95168Z" fill="var(--fill-0, #FFC107)" stroke="var(--stroke-0, #FFC107)" stroke-width="1.70062" stroke-linecap="round" stroke-linejoin="round"/>
</g>
</svg>
