<svg preserveAspectRatio="none" width="100%" height="100%" overflow="visible" style="display: block;" viewBox="0 0 20.4074 20.4074" fill="none" xmlns="http://www.w3.org/2000/svg">
<g id="Icon">
<path id="Vector" d="M9.79982 1.95168C9.83708 1.87639 9.89464 1.81302 9.96601 1.76871C10.0374 1.7244 10.1197 1.70093 10.2037 1.70093C10.2877 1.70093 10.37 1.7244 10.4414 1.76871C10.5128 1.81302 10.5703 1.87639 10.6076 1.95168L12.5718 5.93028C12.7012 6.19214 12.8922 6.4187 13.1285 6.5905C13.3647 6.7623 13.6391 6.87422 13.9281 6.91664L18.3208 7.55947C18.404 7.57153 18.4822 7.60664 18.5465 7.66083C18.6108 7.71501 18.6587 7.78612 18.6847 7.8661C18.7107 7.94608 18.7138 8.03174 18.6937 8.11339C18.6736 8.19505 18.631 8.26944 18.5708 8.32815L15.394 11.4216C15.1845 11.6257 15.0278 11.8778 14.9372 12.1559C14.8467 12.4341 14.8252 12.7301 14.8745 13.0185L15.6244 17.3891C15.6391 17.4722 15.6301 17.5579 15.5985 17.6362C15.5669 17.7146 15.5138 17.7824 15.4455 17.8321C15.3771 17.8817 15.2962 17.9111 15.2119 17.917C15.1276 17.9229 15.0434 17.9049 14.9689 17.8652L11.0421 15.8007C10.7834 15.6648 10.4955 15.5938 10.2033 15.5938C9.91105 15.5938 9.62319 15.6648 9.36446 15.8007L5.43858 17.8652C5.36403 17.9047 5.27991 17.9224 5.19577 17.9165C5.11164 17.9105 5.03087 17.881 4.96265 17.8314C4.89444 17.7818 4.84152 17.714 4.8099 17.6358C4.77829 17.5576 4.76926 17.4721 4.78384 17.3891L5.53296 13.0193C5.58245 12.7308 5.56101 12.4346 5.47049 12.1563C5.37998 11.8779 5.22311 11.6258 5.01342 11.4216L1.83666 8.329C1.77595 8.27036 1.73292 8.19584 1.71249 8.11394C1.69205 8.03203 1.69503 7.94604 1.72109 7.86574C1.74714 7.78545 1.79522 7.71409 1.85986 7.65979C1.92449 7.60549 2.00307 7.57044 2.08665 7.55862L6.47851 6.91664C6.76783 6.87455 7.04259 6.76278 7.27914 6.59096C7.5157 6.41913 7.70695 6.1924 7.83645 5.93028L9.79982 1.95168Z" fill="var(--fill-0, #FFC107)" stroke="var(--stroke-0, #FFC107)" stroke-width="1.70062" stroke-linecap="round" stroke-linejoin="round"/>
</g>
</svg>
