<svg preserveAspectRatio="none" width="100%" height="100%" overflow="visible" style="display: block;" viewBox="0 0 20.4074 20.4074" fill="none" xmlns="http://www.w3.org/2000/svg">
<g id="Icon">
<path id="Vector" d="M9.79948 1.95168C9.83674 1.87639 9.8943 1.81302 9.96567 1.76871C10.037 1.7244 10.1194 1.70093 10.2034 1.70093C10.2874 1.70093 10.3697 1.7244 10.4411 1.76871C10.5124 1.81302 10.57 1.87639 10.6073 1.95168L12.5715 5.93028C12.7009 6.19214 12.8919 6.4187 13.1281 6.5905C13.3643 6.7623 13.6387 6.87422 13.9277 6.91664L18.3204 7.55947C18.4037 7.57153 18.4819 7.60664 18.5462 7.66083C18.6105 7.71501 18.6584 7.78612 18.6844 7.8661C18.7104 7.94608 18.7135 8.03174 18.6934 8.11339C18.6732 8.19505 18.6306 8.26944 18.5704 8.32815L15.3937 11.4216C15.1842 11.6257 15.0274 11.8778 14.9369 12.1559C14.8464 12.4341 14.8249 12.7301 14.8741 13.0185L15.6241 17.3891C15.6388 17.4722 15.6298 17.5579 15.5982 17.6362C15.5665 17.7146 15.5135 17.7824 15.4451 17.8321C15.3768 17.8817 15.2959 17.9111 15.2116 17.917C15.1273 17.9229 15.0431 17.9049 14.9685 17.8652L11.0418 15.8007C10.783 15.6648 10.4952 15.5938 10.203 15.5938C9.91072 15.5938 9.62285 15.6648 9.36412 15.8007L5.43824 17.8652C5.36369 17.9047 5.27957 17.9224 5.19543 17.9165C5.1113 17.9105 5.03053 17.881 4.96231 17.8314C4.8941 17.7818 4.84118 17.714 4.80957 17.6358C4.77795 17.5576 4.76892 17.4721 4.7835 17.3891L5.53262 13.0193C5.58211 12.7308 5.56067 12.4346 5.47016 12.1563C5.37964 11.8779 5.22278 11.6258 5.01308 11.4216L1.83632 8.329C1.77561 8.27036 1.73258 8.19584 1.71215 8.11394C1.69171 8.03203 1.69469 7.94604 1.72075 7.86574C1.7468 7.78545 1.79489 7.71409 1.85952 7.65979C1.92415 7.60549 2.00273 7.57044 2.08632 7.55862L6.47817 6.91664C6.76749 6.87455 7.04225 6.76278 7.27881 6.59096C7.51536 6.41913 7.70661 6.1924 7.83611 5.93028L9.79948 1.95168Z" fill="var(--fill-0, #FFC107)" stroke="var(--stroke-0, #FFC107)" stroke-width="1.70062" stroke-linecap="round" stroke-linejoin="round"/>
</g>
</svg>
