<svg preserveAspectRatio="none" width="100%" height="100%" overflow="visible" style="display: block;" viewBox="0 0 20.4074 20.4074" fill="none" xmlns="http://www.w3.org/2000/svg">
<g id="Icon">
<path id="Vector" d="M9.79969 1.95168C9.83695 1.87639 9.89452 1.81302 9.96588 1.76871C10.0373 1.7244 10.1196 1.70093 10.2036 1.70093C10.2876 1.70093 10.3699 1.7244 10.4413 1.76871C10.5127 1.81302 10.5702 1.87639 10.6075 1.95168L12.5717 5.93028C12.7011 6.19214 12.8921 6.4187 13.1283 6.5905C13.3646 6.7623 13.6389 6.87422 13.9279 6.91664L18.3206 7.55947C18.4039 7.57153 18.4821 7.60664 18.5464 7.66083C18.6107 7.71501 18.6586 7.78612 18.6846 7.8661C18.7106 7.94608 18.7137 8.03174 18.6936 8.11339C18.6734 8.19505 18.6309 8.26944 18.5706 8.32815L15.3939 11.4216C15.1844 11.6257 15.0276 11.8778 14.9371 12.1559C14.8466 12.4341 14.8251 12.7301 14.8743 13.0185L15.6243 17.3891C15.639 17.4722 15.63 17.5579 15.5984 17.6362C15.5667 17.7146 15.5137 17.7824 15.4454 17.8321C15.377 17.8817 15.2961 17.9111 15.2118 17.917C15.1275 17.9229 15.0433 17.9049 14.9687 17.8652L11.042 15.8007C10.7833 15.6648 10.4954 15.5938 10.2032 15.5938C9.91093 15.5938 9.62306 15.6648 9.36433 15.8007L5.43845 17.8652C5.3639 17.9047 5.27978 17.9224 5.19564 17.9165C5.11151 17.9105 5.03074 17.881 4.96253 17.8314C4.89431 17.7818 4.84139 17.714 4.80978 17.6358C4.77817 17.5576 4.76913 17.4721 4.78371 17.3891L5.53283 13.0193C5.58232 12.7308 5.56088 12.4346 5.47037 12.1563C5.37986 11.8779 5.22299 11.6258 5.01329 11.4216L1.83653 8.329C1.77582 8.27036 1.73279 8.19584 1.71236 8.11394C1.69192 8.03203 1.6949 7.94604 1.72096 7.86574C1.74701 7.78545 1.7951 7.71409 1.85973 7.65979C1.92436 7.60549 2.00294 7.57044 2.08653 7.55862L6.47838 6.91664C6.7677 6.87455 7.04246 6.76278 7.27902 6.59096C7.51557 6.41913 7.70682 6.1924 7.83632 5.93028L9.79969 1.95168Z" fill="var(--fill-0, #FFC107)" stroke="var(--stroke-0, #FFC107)" stroke-width="1.70062" stroke-linecap="round" stroke-linejoin="round"/>
</g>
</svg>
