<svg preserveAspectRatio="none" width="100%" height="100%" overflow="visible" style="display: block;" viewBox="0 0 20.4074 20.4074" fill="none" xmlns="http://www.w3.org/2000/svg">
<g id="Icon">
<path id="Vector" d="M9.79963 1.95168C9.83689 1.87639 9.89446 1.81302 9.96582 1.76871C10.0372 1.7244 10.1195 1.70093 10.2035 1.70093C10.2875 1.70093 10.3699 1.7244 10.4412 1.76871C10.5126 1.81302 10.5702 1.87639 10.6074 1.95168L12.5716 5.93028C12.701 6.19214 12.892 6.4187 13.1283 6.5905C13.3645 6.7623 13.6389 6.87422 13.9279 6.91664L18.3206 7.55947C18.4038 7.57153 18.482 7.60664 18.5463 7.66083C18.6107 7.71501 18.6585 7.78612 18.6845 7.8661C18.7105 7.94608 18.7137 8.03174 18.6935 8.11339C18.6734 8.19505 18.6308 8.26944 18.5706 8.32815L15.3938 11.4216C15.1843 11.6257 15.0276 11.8778 14.9371 12.1559C14.8466 12.4341 14.825 12.7301 14.8743 13.0185L15.6243 17.3891C15.6389 17.4722 15.63 17.5579 15.5983 17.6362C15.5667 17.7146 15.5137 17.7824 15.4453 17.8321C15.3769 17.8817 15.296 17.9111 15.2117 17.917C15.1275 17.9229 15.0432 17.9049 14.9687 17.8652L11.0419 15.8007C10.7832 15.6648 10.4953 15.5938 10.2031 15.5938C9.91087 15.5938 9.623 15.6648 9.36427 15.8007L5.43839 17.8652C5.36384 17.9047 5.27972 17.9224 5.19558 17.9165C5.11145 17.9105 5.03068 17.881 4.96247 17.8314C4.89425 17.7818 4.84133 17.714 4.80972 17.6358C4.77811 17.5576 4.76907 17.4721 4.78365 17.3891L5.53277 13.0193C5.58226 12.7308 5.56082 12.4346 5.47031 12.1563C5.3798 11.8779 5.22293 11.6258 5.01323 11.4216L1.83648 8.329C1.77576 8.27036 1.73273 8.19584 1.7123 8.11394C1.69186 8.03203 1.69485 7.94604 1.7209 7.86574C1.74696 7.78545 1.79504 7.71409 1.85967 7.65979C1.9243 7.60549 2.00288 7.57044 2.08647 7.55862L6.47832 6.91664C6.76764 6.87455 7.0424 6.76278 7.27896 6.59096C7.51551 6.41913 7.70676 6.1924 7.83626 5.93028L9.79963 1.95168Z" fill="var(--fill-0, #FFC107)" stroke="var(--stroke-0, #FFC107)" stroke-width="1.70062" stroke-linecap="round" stroke-linejoin="round"/>
</g>
</svg>
