<svg preserveAspectRatio="none" width="100%" height="100%" overflow="visible" style="display: block;" viewBox="0 0 32.7556 32.7556" fill="none" xmlns="http://www.w3.org/2000/svg">
<g id="Group">
<path id="Vector" d="M5.57899e-05 32.7556L2.31516 24.3487C0.883861 21.8812 0.133018 19.0867 0.140839 16.2299C0.140839 7.27815 7.46156 0 16.4482 0C20.8125 0 24.9109 1.68915 27.9846 4.7561C31.0662 7.82304 32.7634 11.9019 32.7556 16.2377C32.7556 25.1894 25.4349 32.4676 16.4404 32.4676H16.4326C13.703 32.4676 11.0202 31.7826 8.63476 30.4904L5.57899e-05 32.7556ZM9.04928 27.5558L9.54203 27.8516C11.6225 29.0815 14.008 29.7276 16.4404 29.7353H16.4482C23.9176 29.7353 30.0025 23.6871 30.0025 16.2455C30.0025 12.6414 28.5947 9.25532 26.0371 6.70213C23.4796 4.14894 20.0695 2.74779 16.4482 2.74779C8.97889 2.74001 2.89393 8.78827 2.89393 16.2299C2.89393 18.7753 3.60567 21.2584 4.96657 23.4068L5.28725 23.9206L3.91852 28.8947L9.04928 27.5558Z" fill="var(--fill-0, white)"/>
<path id="Vector_2" d="M0.571039 32.1873L2.80793 24.0685C1.42356 21.6943 0.69618 18.9932 0.69618 16.2377C0.704001 7.5973 7.76662 0.568234 16.4483 0.568234C20.6639 0.568234 24.6137 2.2029 27.5858 5.16087C30.5579 8.11883 32.1925 12.0576 32.1925 16.2455C32.1925 24.8858 25.1221 31.9149 16.4483 31.9149H16.4404C13.8047 31.9149 11.2158 31.2532 8.91635 30.0078L0.571039 32.1873Z" fill="url(#paint0_linear_0_14)"/>
<path id="Vector_3" d="M5.57899e-05 32.7556L2.31516 24.3487C0.883861 21.8812 0.133018 19.0867 0.140839 16.2299C0.140839 7.27815 7.46156 0 16.4482 0C20.8125 0 24.9109 1.68915 27.9846 4.7561C31.0662 7.82304 32.7634 11.9019 32.7556 16.2377C32.7556 25.1894 25.4349 32.4676 16.4404 32.4676H16.4326C13.703 32.4676 11.0202 31.7826 8.63476 30.4904L5.57899e-05 32.7556ZM9.04928 27.5558L9.54203 27.8516C11.6225 29.0815 14.008 29.7276 16.4404 29.7353H16.4482C23.9176 29.7353 30.0025 23.6871 30.0025 16.2455C30.0025 12.6414 28.5947 9.25532 26.0371 6.70213C23.4796 4.14894 20.0695 2.74779 16.4482 2.74779C8.97889 2.74001 2.89393 8.78827 2.89393 16.2299C2.89393 18.7753 3.60567 21.2584 4.96657 23.4068L5.28725 23.9206L3.91852 28.8947L9.04928 27.5558Z" fill="url(#paint1_linear_0_14)"/>
<path id="Vector_4" fill-rule="evenodd" clip-rule="evenodd" d="M12.3732 9.44214C12.0682 8.76492 11.7475 8.74935 11.4581 8.74157C11.2235 8.73379 10.9497 8.73379 10.676 8.73379C10.4022 8.73379 9.96425 8.83498 9.58883 9.23975C9.21341 9.64453 8.16536 10.6253 8.16536 12.6258C8.16536 14.6186 9.62794 16.549 9.83129 16.8215C10.0346 17.0939 12.6548 21.3207 16.7922 22.9476C20.2336 24.302 20.9375 24.0296 21.6805 23.9595C22.4236 23.8895 24.0895 22.9787 24.4336 22.0291C24.7699 21.0794 24.7699 20.2699 24.6683 20.0986C24.5666 19.9274 24.2929 19.8262 23.8861 19.6238C23.4794 19.4214 21.4772 18.4406 21.1018 18.3005C20.7263 18.1681 20.4526 18.0981 20.1867 18.5029C19.9129 18.9076 19.1308 19.8184 18.8962 20.0908C18.6615 20.3633 18.4191 20.3944 18.0124 20.192C17.6057 19.9896 16.2917 19.5615 14.7352 18.1759C13.5229 17.1017 12.7017 15.7706 12.4671 15.3659C12.2324 14.9611 12.4436 14.7431 12.647 14.5407C12.8268 14.3617 13.0537 14.0659 13.257 13.8324C13.4604 13.5989 13.5308 13.4276 13.6637 13.1552C13.7967 12.8827 13.7341 12.6492 13.6324 12.4468C13.5308 12.2522 12.733 10.2439 12.3732 9.44214Z" fill="var(--fill-0, white)"/>
</g>
<defs>
<linearGradient id="paint0_linear_0_14" x1="16.3809" y1="32.1858" x2="16.3809" y2="0.567128" gradientUnits="userSpaceOnUse">
<stop stop-color="#20B038"/>
<stop offset="1" stop-color="#60D66A"/>
</linearGradient>
<linearGradient id="paint1_linear_0_14" x1="16.381" y1="32.7525" x2="16.381" y2="0" gradientUnits="userSpaceOnUse">
<stop stop-color="#F9F9F9"/>
<stop offset="1" stop-color="white"/>
</linearGradient>
</defs>
</svg>
