<svg preserveAspectRatio="none" width="100%" height="100%" overflow="visible" style="display: block;" viewBox="0 0 20 20" fill="none" xmlns="http://www.w3.org/2000/svg">
<g id="AirplaneInFlight">
<path id="Vector" d="M17.5 16.875C17.5 17.0408 17.4342 17.1997 17.3169 17.3169C17.1997 17.4342 17.0408 17.5 16.875 17.5H5.625C5.45924 17.5 5.30027 17.4342 5.18306 17.3169C5.06585 17.1997 5 17.0408 5 16.875C5 16.7092 5.06585 16.5503 5.18306 16.4331C5.30027 16.3158 5.45924 16.25 5.625 16.25H16.875C17.0408 16.25 17.1997 16.3158 17.3169 16.4331C17.4342 16.5503 17.5 16.7092 17.5 16.875ZM19.375 10.625V12.5C19.375 12.6658 19.3092 12.8247 19.1919 12.9419C19.0747 13.0592 18.9158 13.125 18.75 13.125H4.77109C4.09826 13.1281 3.44263 12.9126 2.90286 12.5109C2.36308 12.1092 1.96837 11.543 1.77813 10.8977L0.678906 7.23437C0.622905 7.04781 0.611279 6.85074 0.644955 6.65889C0.678631 6.46704 0.756678 6.28571 0.872869 6.12937C0.98906 5.97303 1.14018 5.84601 1.31417 5.75844C1.48816 5.67087 1.68021 5.62518 1.875 5.625H2.5C2.66554 5.62508 2.82429 5.69082 2.94141 5.80781L4.63438 7.5H6.39141L5.68828 5.39531C5.62562 5.20734 5.60854 5.00717 5.63845 4.81129C5.66836 4.61542 5.74441 4.42947 5.86032 4.26877C5.97623 4.10807 6.12868 3.97722 6.3051 3.88703C6.48152 3.79683 6.67686 3.74986 6.875 3.75H7.5C7.5821 3.74994 7.66341 3.76605 7.73928 3.79741C7.81515 3.82878 7.8841 3.87479 7.94219 3.93281L11.5094 7.5H16.25C17.0788 7.5 17.8737 7.82924 18.4597 8.41529C19.0458 9.00134 19.375 9.7962 19.375 10.625ZM18.125 10.625C18.125 10.1277 17.9275 9.65081 17.5758 9.29917C17.2242 8.94754 16.7473 8.75 16.25 8.75H11.25C11.0845 8.74992 10.9257 8.68418 10.8086 8.56719L7.24141 5H6.875L7.85078 7.92734C7.88208 8.02124 7.89064 8.12122 7.87574 8.21906C7.86085 8.31691 7.82293 8.40982 7.76511 8.49014C7.70728 8.57046 7.63121 8.63591 7.54315 8.68109C7.45509 8.72626 7.35757 8.74988 7.25859 8.75H4.375C4.2929 8.75006 4.21159 8.73395 4.13572 8.70258C4.05985 8.67122 3.9909 8.62521 3.93281 8.56719L2.24141 6.875H1.875L2.97422 10.5391C3.08851 10.9264 3.32553 11.2661 3.64961 11.507C3.97369 11.748 4.36727 11.8771 4.77109 11.875H18.125V10.625Z" fill="var(--fill-0, #081B5B)"/>
</g>
</svg>
