<svg preserveAspectRatio="none" width="100%" height="100%" overflow="visible" style="display: block;" viewBox="0 0 17.28 17.28" fill="none" xmlns="http://www.w3.org/2000/svg">
<g id="phone-line">
<path id="Vector" d="M6.74238 7.69115C7.41662 8.87677 8.40244 9.86259 9.58807 10.5368L10.2249 9.64523C10.4367 9.34887 10.8363 9.25729 11.156 9.43189C12.1689 9.98521 13.2883 10.3215 14.456 10.4139C14.8305 10.4436 15.1192 10.756 15.1192 11.1317V14.3449C15.1192 14.714 14.84 15.0233 14.4728 15.0611C14.0912 15.1003 13.7063 15.12 13.3192 15.12C7.15569 15.12 2.15918 10.1235 2.15918 3.96003C2.15918 3.57287 2.17892 3.18799 2.21814 2.80642C2.25588 2.43921 2.56522 2.16003 2.93437 2.16003H6.14756C6.52317 2.16003 6.83567 2.44878 6.86532 2.82322C6.95774 3.99091 7.294 5.11034 7.84732 6.12323C8.02192 6.44288 7.93034 6.84258 7.63399 7.05428L6.74238 7.69115ZM4.92704 7.21818L6.295 6.24106C5.90712 5.40373 5.6413 4.51575 5.50521 3.60003H3.60571C3.60136 3.71978 3.59918 3.83979 3.59918 3.96003C3.59918 9.32821 7.951 13.68 13.3192 13.68C13.4394 13.68 13.5594 13.6779 13.6792 13.6735V11.774C12.7635 11.6379 11.8755 11.3721 11.0381 10.9842L10.061 12.3522C9.66576 12.1986 9.28401 12.0179 8.91811 11.8124L8.87628 11.7886C7.46536 10.9863 6.29294 9.81385 5.49062 8.40294L5.46682 8.36111C5.26129 7.9952 5.08061 7.61346 4.92704 7.21818Z" fill="var(--fill-0, white)"/>
</g>
</svg>
