<svg preserveAspectRatio="none" width="100%" height="100%" overflow="visible" style="display: block;" viewBox="0 0 120.49 6.37805" fill="none" xmlns="http://www.w3.org/2000/svg">
<g id="Group">
<path id="Vector" d="M5.77032 5.07043H2.39317L1.82498 6.21621H0L3.1702 0.15803H4.99518L8.16538 6.21621H6.3404L5.77221 5.07043H5.77032ZM2.98018 3.88702H5.19461L4.0921 1.65564L2.98018 3.88702Z" fill="var(--fill-0, #252A65)"/>
<path id="Vector_2" d="M12.958 6.21621H11.054L7.98918 0.15803H9.81417L12.0192 4.71672L14.2205 0.15803H16.0454L12.958 6.21621Z" fill="var(--fill-0, #252A65)"/>
<path id="Vector_3" d="M17.0362 6.21621V0.15803H18.673V6.21621H17.0362Z" fill="var(--fill-0, #252A65)"/>
<path id="Vector_4" d="M25.4371 5.07043H22.06L21.4918 6.21621H19.6668L22.837 0.15803H24.662L27.8322 6.21621H26.0072L25.439 5.07043H25.4371ZM22.647 3.88702H24.8614L23.7589 1.65564L22.647 3.88702Z" fill="var(--fill-0, #252A65)"/>
<path id="Vector_5" d="M31.8662 1.47507V6.21625H30.2293V1.47507H27.6593V0.156195H34.4419V1.47507H31.8662Z" fill="var(--fill-0, #252A65)"/>
<path id="Vector_6" d="M35.5218 6.21621V0.15803H37.1587V6.21621H35.5218Z" fill="var(--fill-0, #252A65)"/>
<path id="Vector_7" d="M46.8947 3.19092C46.8947 3.71207 46.7988 4.17114 46.6087 4.56812C46.4187 4.9651 46.144 5.3 45.7884 5.56716C45.4328 5.83432 45.002 6.03751 44.494 6.17297C43.986 6.30843 43.4178 6.37805 42.7857 6.37805C42.1535 6.37805 41.5834 6.31032 41.0717 6.17297C40.56 6.03563 40.1272 5.83432 39.7679 5.56716C39.4085 5.3 39.132 4.96698 38.9382 4.56812C38.7444 4.16926 38.6465 3.71019 38.6465 3.19092C38.6465 2.67165 38.7444 2.2107 38.9382 1.81372C39.132 1.41673 39.4085 1.08184 39.7679 0.81468C40.1272 0.547518 40.56 0.344323 41.0717 0.208861C41.5834 0.0733984 42.1535 0.00378642 42.7857 0.00378642C43.4178 0.00378642 43.9879 0.071517 44.494 0.208861C45.0001 0.346205 45.4328 0.547518 45.7884 0.81468C46.144 1.08184 46.4168 1.41485 46.6087 1.81372C46.8006 2.21258 46.8947 2.67165 46.8947 3.19092ZM45.2409 3.19092C45.2409 2.96515 45.2052 2.73937 45.1337 2.5136C45.0622 2.28783 44.9343 2.08652 44.7499 1.90779C44.5655 1.72905 44.3153 1.5823 43.9973 1.47129C43.6794 1.36029 43.2748 1.30385 42.7838 1.30385C42.4545 1.30385 42.1648 1.33019 41.9146 1.38099C41.6644 1.43179 41.448 1.50327 41.2655 1.59546C41.083 1.68765 40.9306 1.79302 40.8064 1.91531C40.6822 2.0376 40.5844 2.16742 40.511 2.30853C40.4377 2.44964 40.385 2.59451 40.3549 2.74502C40.3248 2.89554 40.3078 3.04605 40.3078 3.1928C40.3078 3.33955 40.3229 3.49383 40.3549 3.64622C40.3869 3.79862 40.4377 3.94537 40.511 4.0846C40.5844 4.22382 40.6822 4.35364 40.8064 4.47405C40.9306 4.59446 41.083 4.69982 41.2655 4.79013C41.448 4.88044 41.6644 4.95005 41.9146 5.00085C42.1648 5.05165 42.4545 5.07798 42.7838 5.07798C43.2748 5.07798 43.6794 5.02155 43.9973 4.91054C44.3153 4.79954 44.5655 4.65279 44.7499 4.47405C44.9343 4.29532 45.0622 4.09212 45.1337 3.86823C45.2052 3.64434 45.2409 3.41857 45.2409 3.19092Z" fill="var(--fill-0, #252A65)"/>
<path id="Vector_8" d="M54.1082 6.21621L50.0199 2.0545V6.21621H48.3831V0.15803H50.161L54.2531 4.33855V0.15803H55.8805V6.21621H54.1082Z" fill="var(--fill-0, #252A65)"/>
<path id="Vector_9" d="M66.0398 5.07043H62.6627L62.0945 6.21621H60.2695L63.4397 0.15803H65.2647L68.4349 6.21621H66.6099L66.0417 5.07043H66.0398ZM63.2497 3.88702H65.4641L64.3616 1.65564L63.2497 3.88702Z" fill="var(--fill-0, #252A65)"/>
<path id="Vector_10" d="M75.376 6.03939C75.1615 6.11088 74.9395 6.17108 74.71 6.22188C74.4804 6.27268 74.2396 6.31219 73.9837 6.33853C73.7279 6.36487 73.4569 6.37804 73.1653 6.37804C72.5482 6.37804 71.98 6.3122 71.4607 6.1805C70.9415 6.0488 70.4956 5.84936 70.1212 5.58219C69.7468 5.31503 69.4551 4.9839 69.2463 4.58504C69.0375 4.18618 68.934 3.72147 68.934 3.18903C68.934 2.65658 69.0375 2.19188 69.2463 1.79301C69.4551 1.39415 69.7468 1.06301 70.1212 0.79585C70.4956 0.528688 70.9433 0.331146 71.4607 0.197565C71.9781 0.0639835 72.5482 1.16043e-05 73.1653 1.16043e-05C73.4569 1.16043e-05 73.7297 0.0131857 73.9837 0.0395256C74.2377 0.0658656 74.4804 0.105375 74.71 0.156173C74.9395 0.206971 75.1615 0.269059 75.376 0.338671C75.5905 0.408284 75.8031 0.489183 76.0157 0.57761V2.05077C75.8482 1.96046 75.6714 1.87015 75.487 1.77984C75.3026 1.68953 75.0975 1.60863 74.8736 1.53713C74.6497 1.46564 74.4052 1.40543 74.138 1.36028C73.8708 1.31512 73.5698 1.29255 73.2349 1.29255C72.7213 1.29255 72.2942 1.34523 71.9537 1.45059C71.6131 1.55595 71.3422 1.69706 71.1409 1.87391C70.9396 2.05077 70.7947 2.25207 70.7138 2.47973C70.6329 2.70738 70.5896 2.94256 70.5896 3.18714C70.5896 3.34895 70.6066 3.50886 70.6423 3.66502C70.6781 3.82118 70.7364 3.96982 70.8192 4.11093C70.902 4.25204 71.0092 4.37997 71.1409 4.49662C71.2726 4.61327 71.4382 4.71486 71.6338 4.80141C71.8295 4.88795 72.0609 4.95381 72.3243 5.00272C72.5877 5.05164 72.8906 5.07609 73.2349 5.07609C73.5792 5.07609 73.8708 5.0554 74.138 5.01213C74.4052 4.96885 74.6516 4.91241 74.8736 4.84279C75.0956 4.77318 75.3007 4.69229 75.487 4.60198C75.6732 4.51167 75.8482 4.42136 76.0157 4.32729V5.80044C75.8049 5.88887 75.5905 5.9679 75.376 6.03939Z" fill="var(--fill-0, #252A65)"/>
<path id="Vector_11" d="M82.4536 5.07043H79.0764L78.5082 6.21621H76.6833L79.8535 0.15803H81.6784L84.8486 6.21621H83.0237L82.4555 5.07043H82.4536ZM79.6616 3.88702H81.876L80.7735 1.65564L79.6616 3.88702Z" fill="var(--fill-0, #252A65)"/>
<path id="Vector_12" d="M93.2606 3.18153C93.2606 3.5691 93.2174 3.9134 93.1327 4.21631C93.048 4.51922 92.9276 4.78074 92.7734 5.00275C92.6191 5.22475 92.4347 5.41665 92.2183 5.57093C92.002 5.7252 91.7611 5.85127 91.4977 5.94534C91.2344 6.03941 90.9484 6.10714 90.6417 6.15041C90.335 6.19368 90.0171 6.21438 89.6841 6.21438H85.8384V0.156195H89.6746C90.0077 0.156195 90.3256 0.17689 90.6323 0.220162C90.939 0.263435 91.2231 0.331166 91.4902 0.425237C91.7574 0.519308 91.9982 0.643478 92.2165 0.797755C92.4347 0.952032 92.6191 1.14206 92.7734 1.36595C92.9276 1.58984 93.048 1.85324 93.1327 2.15238C93.2174 2.45153 93.2606 2.79395 93.2606 3.17964V3.18153ZM91.6125 3.18153C91.6125 2.88991 91.5749 2.63779 91.4996 2.42331C91.4244 2.20883 91.304 2.03197 91.1384 1.89275C90.9728 1.75352 90.7546 1.64817 90.4874 1.58043C90.2203 1.5127 89.8929 1.47696 89.5091 1.47696H87.4771V4.89926H89.5091C89.8948 4.89926 90.2203 4.86539 90.4874 4.79578C90.7546 4.72617 90.971 4.62081 91.1384 4.47782C91.3058 4.33483 91.4244 4.1561 91.4996 3.94162C91.5749 3.72714 91.6125 3.47502 91.6125 3.1834V3.18153Z" fill="var(--fill-0, #252A65)"/>
<path id="Vector_13" d="M94.7529 6.21621V0.15803H100.886V1.45057H96.433V2.45149H100.657V3.74403H96.433V4.92556H100.948V6.21809H94.7529V6.21621Z" fill="var(--fill-0, #252A65)"/>
<path id="Vector_14" d="M110.229 6.21621V1.96043L107.981 6.21621H106.412L104.163 1.96043V6.21621H102.526V0.15803H104.748L107.196 4.74495L109.644 0.15803H111.858V6.21621H110.231H110.229Z" fill="var(--fill-0, #252A65)"/>
<path id="Vector_15" d="M117.553 3.74215V6.21621H115.922V3.74215L112.985 0.15803H114.82L116.742 2.59635L118.656 0.15803H120.49L117.553 3.74215Z" fill="var(--fill-0, #252A65)"/>
</g>
</svg>
