<svg preserveAspectRatio="none" width="100%" height="100%" overflow="visible" style="display: block;" viewBox="0 0 170.192 27.2882" fill="none" xmlns="http://www.w3.org/2000/svg">
<g id="Group">
<path id="Vector" d="M40.9887 5.87385H4.93123C2.20692 5.87385 1.27294e-05 3.66694 1.27294e-05 0.942639V0.600218H37.9446L40.9887 5.87197V5.87385Z" fill="url(#paint0_linear_0_35)"/>
<path id="Vector_2" d="M45.2338 13.2264H14.6305C12.3277 13.2264 10.4613 11.3601 10.4613 9.05719V8.76745H42.6619L45.2356 13.2245L45.2338 13.2264Z" fill="url(#paint1_linear_0_35)"/>
<path id="Vector_3" d="M49.2331 20.1538H25.5892C23.2864 20.1538 21.42 18.2875 21.42 15.9846V15.6967H46.6593L49.2331 20.1538Z" fill="url(#paint2_linear_0_35)"/>
<path id="Vector_4" d="M53.3517 27.2882H40.1667C37.8639 27.2882 35.9975 25.4218 35.9975 23.1189V22.8292H50.7779L53.3517 27.2882Z" fill="url(#paint3_linear_0_35)"/>
<path id="Vector_5" d="M130.097 5.50318H165.368C168.032 5.50318 170.192 3.34519 170.192 0.679216V0.344317H133.074L130.095 5.5013L130.097 5.50318Z" fill="url(#paint4_linear_0_35)"/>
<path id="Vector_6" d="M125.945 12.6959H155.882C158.136 12.6959 159.961 10.869 159.961 8.61886V8.33665H128.462L125.945 12.6978V12.6959Z" fill="url(#paint5_linear_0_35)"/>
<path id="Vector_7" d="M122.033 19.4709H145.162C147.414 19.4709 149.239 17.644 149.239 15.3919V15.1097H124.549L122.031 19.4709H122.033Z" fill="url(#paint6_linear_0_35)"/>
<path id="Vector_8" d="M118.005 26.4491H130.902C133.154 26.4491 134.979 24.6222 134.979 22.3701V22.0879H120.521L118.003 26.4491H118.005Z" fill="url(#paint7_linear_0_35)"/>
<g id="Group_2">
<path id="Vector_9" d="M54.5092 2.98398V12.5868H51.5855V2.98398H46.9892V0.312359H59.113V2.98398H54.5092Z" fill="var(--fill-0, #252A65)"/>
<path id="Vector_10" d="M61.0432 12.5887V0.314247H63.9669V12.5887H61.0432Z" fill="var(--fill-0, #252A65)"/>
<path id="Vector_11" d="M74.3333 4.57764e-05C75.3944 4.57764e-05 76.3822 0.103527 77.2928 0.308602C78.2053 0.513677 79.0406 0.777073 79.8026 1.0988V4.09967C79.5035 3.90965 79.1648 3.72527 78.7904 3.54653C78.4141 3.3678 78.0059 3.20975 77.5637 3.07241C77.1216 2.93506 76.6494 2.82595 76.1451 2.74128C75.6409 2.6585 75.1103 2.61711 74.5534 2.61711C73.8592 2.61711 73.2553 2.67355 72.7398 2.78643C72.2242 2.89932 71.784 3.05172 71.4152 3.24174C71.0465 3.43177 70.7454 3.65377 70.5084 3.90776C70.2713 4.16175 70.0851 4.4308 69.9477 4.71678C69.8104 5.00275 69.7163 5.29437 69.6636 5.59164C69.6109 5.8889 69.5846 6.17864 69.5846 6.45897C69.5846 6.70356 69.6072 6.96884 69.6523 7.25482C69.6975 7.54079 69.7803 7.82677 69.9044 8.11275C70.0286 8.39872 70.1998 8.67341 70.4218 8.93493C70.642 9.19645 70.9298 9.42974 71.2854 9.63106C71.6391 9.83425 72.0662 9.99605 72.5667 10.1183C73.0652 10.2406 73.6598 10.3008 74.3484 10.3008C74.6945 10.3008 74.9975 10.2896 75.2552 10.2651C75.513 10.2406 75.7481 10.2087 75.9607 10.1673C76.1733 10.1259 76.3728 10.0751 76.559 10.0149C76.7453 9.95466 76.9391 9.89258 77.1385 9.82673V8.34416H73.8592V5.65561H80.0623V11.9264C79.6728 12.075 79.2382 12.2105 78.7584 12.3328C78.2768 12.4551 77.7801 12.5586 77.2683 12.6451C76.7566 12.7316 76.243 12.7975 75.7275 12.8464C75.2119 12.8934 74.7265 12.9179 74.2694 12.9179C73.5601 12.9179 72.879 12.8652 72.228 12.758C71.577 12.6507 70.9675 12.4852 70.403 12.2613C69.8386 12.0374 69.3231 11.7533 68.8584 11.409C68.3937 11.0628 67.9967 10.6527 67.6674 10.1767C67.3382 9.70067 67.0842 9.15318 66.9036 8.53795C66.723 7.92272 66.6308 7.22848 66.6308 6.46086C66.6308 5.69323 66.7248 5.0084 66.9149 4.38753C67.103 3.76854 67.3683 3.22104 67.7069 2.74316C68.0456 2.26716 68.4539 1.85513 68.928 1.51083C69.404 1.16465 69.927 0.880552 70.4971 0.658544C71.0672 0.434655 71.6767 0.269092 72.3258 0.161851C72.9749 0.0546101 73.6428 0.00192904 74.3314 0.00192904L74.3333 4.57764e-05Z" fill="var(--fill-0, #252A65)"/>
<path id="Vector_12" d="M83.21 12.5887V0.314247H94.1749V2.9313H86.2127V4.95948H93.7647V7.57654H86.2127V9.97159H94.284V12.5887H83.2081H83.21Z" fill="var(--fill-0, #252A65)"/>
<path id="Vector_13" d="M100.03 12.5887H97.1061V0.314247H104.436C105.224 0.314247 105.892 0.406437 106.442 0.590816C106.991 0.775196 107.437 1.03671 107.781 1.37725C108.126 1.71591 108.376 2.12606 108.53 2.60582C108.684 3.08558 108.763 3.61991 108.763 4.20879C108.763 4.72618 108.699 5.17961 108.57 5.56718C108.442 5.95475 108.267 6.28589 108.05 6.56245C107.832 6.83902 107.578 7.07232 107.29 7.26423C107.001 7.45425 106.696 7.61229 106.376 7.73834L109.922 12.5887H106.502L103.223 8.06759H100.03V12.5887ZM105.81 4.18998C105.81 3.95103 105.781 3.74973 105.727 3.58228C105.672 3.41483 105.576 3.27937 105.439 3.17589C105.302 3.07241 105.119 2.99528 104.891 2.94824C104.664 2.9012 104.378 2.87675 104.035 2.87675H100.032V5.50321H104.035C104.378 5.50321 104.662 5.47875 104.891 5.43172C105.119 5.38468 105.303 5.30754 105.439 5.20407C105.576 5.10059 105.672 4.96512 105.727 4.79768C105.781 4.63023 105.81 4.42892 105.81 4.18998Z" fill="var(--fill-0, #252A65)"/>
<path id="Vector_14" d="M121.999 3.77044C121.794 3.65755 121.523 3.52962 121.186 3.38663C120.85 3.24364 120.469 3.10818 120.042 2.98024C119.617 2.8523 119.154 2.74506 118.656 2.65852C118.157 2.57197 117.644 2.5287 117.119 2.5287C116.697 2.5287 116.34 2.54375 116.042 2.57385C115.745 2.60395 115.495 2.64158 115.294 2.6905C115.09 2.73753 114.931 2.79398 114.812 2.85606C114.693 2.91815 114.603 2.98212 114.539 3.04797C114.477 3.11382 114.436 3.17967 114.417 3.24364C114.398 3.30949 114.389 3.36781 114.389 3.42237C114.389 3.60111 114.468 3.75727 114.626 3.89085C114.784 4.02443 114.998 4.14484 115.273 4.24832C115.546 4.3518 115.864 4.45151 116.227 4.5437C116.59 4.63589 116.974 4.73185 117.382 4.82968C117.788 4.92752 118.21 5.03476 118.643 5.1514C119.075 5.26805 119.497 5.40352 119.903 5.55779C120.31 5.71207 120.695 5.89268 121.058 6.09776C121.421 6.30284 121.739 6.54366 122.012 6.81647C122.285 7.09115 122.501 7.40535 122.659 7.76282C122.817 8.12029 122.897 8.52856 122.897 8.98762C122.897 9.57651 122.804 10.0826 122.62 10.5059C122.436 10.9293 122.191 11.2867 121.882 11.5783C121.576 11.87 121.218 12.1033 120.814 12.2801C120.409 12.4551 119.984 12.5906 119.54 12.6865C119.096 12.7825 118.646 12.8445 118.193 12.8746C117.738 12.9048 117.307 12.9198 116.897 12.9198C115.824 12.9198 114.833 12.8201 113.92 12.6207C113.008 12.4212 112.202 12.1729 111.504 11.8756V8.94623C112.225 9.39966 113.045 9.75337 113.967 10.0092C114.889 10.2651 115.877 10.393 116.927 10.393C117.548 10.393 118.052 10.3554 118.445 10.282C118.836 10.2068 119.143 10.1127 119.363 9.99607C119.583 9.87942 119.734 9.75337 119.813 9.61603C119.892 9.47868 119.931 9.34886 119.931 9.2228C119.931 9.02713 119.852 8.85593 119.694 8.70918C119.536 8.56243 119.322 8.43449 119.047 8.32537C118.774 8.21436 118.456 8.11465 118.093 8.02246C117.73 7.93027 117.346 7.83808 116.938 7.74589C116.53 7.6537 116.112 7.55398 115.681 7.44674C115.25 7.3395 114.831 7.21344 114.424 7.06669C114.016 6.91994 113.632 6.75061 113.269 6.55683C112.906 6.36304 112.588 6.13351 112.315 5.86823C112.043 5.60295 111.826 5.29627 111.668 4.94821C111.51 4.60014 111.431 4.19564 111.431 3.73845C111.431 3.1966 111.516 2.72813 111.683 2.3368C111.851 1.94546 112.078 1.60868 112.364 1.33211C112.65 1.05554 112.981 0.829772 113.358 0.658562C113.734 0.485471 114.129 0.351893 114.545 0.255941C114.961 0.159988 115.38 0.096018 115.805 0.0602709C116.231 0.0245238 116.635 0.005708 117.019 0.005708C117.438 0.005708 117.871 0.0301674 118.315 0.077203C118.759 0.124239 119.198 0.191971 119.628 0.278517C120.059 0.365062 120.475 0.464777 120.878 0.577663C121.28 0.690548 121.651 0.809077 121.993 0.935132V3.77608L121.999 3.77044Z" fill="var(--fill-0, #252A65)"/>
</g>
<g id="Group_3">
<path id="Vector_15" d="M68.0907 17.8716L70.0267 23.8358L72.1226 17.8716H74.2467L71.2007 26.4622H68.928L66.9468 20.6863L64.9713 26.4622H62.6986L59.6488 17.8716H61.7785L63.8312 23.7116L65.8123 17.8716H68.0907Z" fill="var(--fill-0, #252A65)"/>
<path id="Vector_16" d="M75.5491 26.4622V17.8716H77.5961V26.4622H75.5491Z" fill="var(--fill-0, #252A65)"/>
<path id="Vector_17" d="M87.1289 26.4622L82.0152 20.5602V26.4622H79.9682V17.8716H82.192L87.3114 23.7981V17.8716H89.3471V26.4622H87.1289Z" fill="var(--fill-0, #252A65)"/>
<path id="Vector_18" d="M96.6003 17.6534C97.3434 17.6534 98.0339 17.7249 98.6717 17.8698C99.3095 18.0127 99.8947 18.1971 100.429 18.4229V20.5244C100.22 20.3909 99.9831 20.261 99.7197 20.1369C99.4563 20.0127 99.1703 19.9017 98.8618 19.8057C98.5532 19.7098 98.2221 19.6326 97.8684 19.5743C97.5147 19.516 97.144 19.4859 96.7546 19.4859C96.2692 19.4859 95.8458 19.5254 95.4865 19.6044C95.1253 19.6834 94.8167 19.7907 94.5589 19.9224C94.3012 20.056 94.0905 20.2102 93.9249 20.389C93.7593 20.5658 93.6295 20.754 93.5336 20.9553C93.4376 21.1547 93.3718 21.3598 93.3341 21.5686C93.2965 21.7775 93.2796 21.9788 93.2796 22.1745C93.2796 22.3457 93.2946 22.53 93.3266 22.7314C93.3586 22.9327 93.4169 23.1321 93.5035 23.3315C93.59 23.531 93.7104 23.7229 93.8647 23.9072C94.019 24.0916 94.2203 24.2534 94.4686 24.3945C94.717 24.5356 95.0161 24.6504 95.3642 24.7351C95.7141 24.8197 96.1299 24.863 96.6116 24.863C96.8543 24.863 97.065 24.8555 97.2456 24.8385C97.4262 24.8216 97.5899 24.799 97.7385 24.7689C97.8872 24.7407 98.0264 24.705 98.1581 24.6636C98.2879 24.6222 98.4234 24.5789 98.5645 24.5319V23.4933H96.2692V21.6119H100.611V26.0013C100.339 26.1047 100.036 26.2007 99.699 26.2854C99.3622 26.3719 99.0142 26.4434 98.6567 26.5036C98.2973 26.5638 97.938 26.6108 97.5786 26.6447C97.2174 26.6786 96.8787 26.6955 96.5589 26.6955C96.0622 26.6955 95.5862 26.6579 95.1309 26.5826C94.6756 26.5074 94.2485 26.3926 93.8534 26.2364C93.4583 26.0803 93.0971 25.8809 92.7716 25.64C92.4461 25.3973 92.1677 25.1114 91.9381 24.7765C91.7086 24.4416 91.5298 24.0615 91.4038 23.6288C91.2777 23.1979 91.2138 22.7125 91.2138 22.1745C91.2138 21.6364 91.2796 21.1566 91.4132 20.7239C91.5449 20.2911 91.7312 19.9073 91.9682 19.5743C92.2053 19.2413 92.4913 18.9535 92.8224 18.7108C93.1554 18.4699 93.5204 18.2705 93.9193 18.1143C94.3181 17.9582 94.7452 17.8415 95.1986 17.7682C95.652 17.6929 96.1205 17.6553 96.6022 17.6553L96.6003 17.6534Z" fill="var(--fill-0, #252A65)"/>
<path id="Vector_19" d="M109.795 20.2911C109.652 20.2121 109.462 20.1218 109.227 20.0221C108.991 19.9224 108.724 19.8264 108.427 19.738C108.13 19.6477 107.806 19.5724 107.456 19.5122C107.106 19.452 106.749 19.4219 106.38 19.4219C106.087 19.4219 105.834 19.4332 105.627 19.4539C105.421 19.4746 105.246 19.5009 105.103 19.5348C104.961 19.5687 104.849 19.6063 104.766 19.6496C104.683 19.6929 104.619 19.738 104.576 19.7832C104.533 19.8283 104.502 19.8754 104.489 19.9205C104.476 19.9657 104.47 20.0089 104.47 20.0447C104.47 20.1689 104.525 20.2799 104.636 20.372C104.747 20.4661 104.897 20.5489 105.088 20.6223C105.279 20.6957 105.501 20.7634 105.755 20.8292C106.009 20.8932 106.278 20.9609 106.563 21.0287C106.847 21.0964 107.142 21.1717 107.445 21.2544C107.748 21.3372 108.043 21.4313 108.327 21.5385C108.611 21.6477 108.882 21.7737 109.134 21.9167C109.388 22.0597 109.61 22.229 109.802 22.419C109.994 22.6109 110.145 22.8311 110.254 23.0813C110.365 23.3315 110.419 23.6175 110.419 23.9373C110.419 24.3494 110.356 24.705 110.226 25.0003C110.098 25.2957 109.925 25.546 109.71 25.751C109.496 25.9561 109.245 26.1198 108.963 26.2421C108.679 26.3644 108.384 26.4603 108.071 26.5262C107.761 26.592 107.447 26.6372 107.129 26.6579C106.811 26.6786 106.508 26.6899 106.222 26.6899C105.471 26.6899 104.777 26.6203 104.139 26.481C103.501 26.3418 102.937 26.1668 102.448 25.9599V23.9091C102.952 24.2252 103.526 24.4736 104.171 24.6542C104.817 24.8329 105.507 24.9232 106.243 24.9232C106.677 24.9232 107.031 24.8969 107.304 24.8442C107.579 24.7915 107.791 24.7257 107.947 24.6448C108.102 24.5639 108.207 24.4754 108.261 24.3795C108.316 24.2835 108.344 24.1913 108.344 24.1048C108.344 23.9674 108.29 23.847 108.179 23.7454C108.068 23.6438 107.917 23.5535 107.727 23.4764C107.535 23.3993 107.313 23.3278 107.059 23.2638C106.805 23.1998 106.536 23.134 106.252 23.07C105.968 23.006 105.675 22.9364 105.372 22.8612C105.069 22.7859 104.777 22.6975 104.491 22.5959C104.205 22.4943 103.936 22.3758 103.684 22.2403C103.43 22.1048 103.208 21.9449 103.016 21.7587C102.824 21.5724 102.674 21.3579 102.565 21.1152C102.454 20.8706 102.399 20.5884 102.399 20.2686C102.399 19.8885 102.457 19.5612 102.576 19.2865C102.692 19.0118 102.852 18.7766 103.054 18.5828C103.255 18.389 103.486 18.231 103.748 18.1106C104.009 17.9902 104.288 17.8961 104.578 17.8284C104.867 17.7625 105.163 17.7155 105.46 17.691C105.757 17.6666 106.041 17.6534 106.309 17.6534C106.602 17.6534 106.905 17.6703 107.215 17.7042C107.526 17.7381 107.833 17.7851 108.134 17.8453C108.435 17.9055 108.726 17.9751 109.008 18.0541C109.291 18.1331 109.55 18.2159 109.789 18.3044V20.293L109.795 20.2911Z" fill="var(--fill-0, #252A65)"/>
</g>
</g>
<defs>
<linearGradient id="paint0_linear_0_35" x1="1.27294e-05" y1="3.23798" x2="40.9887" y2="3.23798" gradientUnits="userSpaceOnUse">
<stop stop-color="#282D6F"/>
<stop offset="0.13" stop-color="#273677"/>
<stop offset="0.33" stop-color="#254F8D"/>
<stop offset="0.59" stop-color="#2278B1"/>
<stop offset="0.9" stop-color="#1EB0E2"/>
<stop offset="1" stop-color="#1DC4F4"/>
</linearGradient>
<linearGradient id="paint1_linear_0_35" x1="10.4613" y1="10.9988" x2="45.2338" y2="10.9988" gradientUnits="userSpaceOnUse">
<stop stop-color="#282D6F"/>
<stop offset="0.13" stop-color="#273878"/>
<stop offset="0.36" stop-color="#245693"/>
<stop offset="0.67" stop-color="#2187BE"/>
<stop offset="1" stop-color="#1DC4F4"/>
</linearGradient>
<linearGradient id="paint2_linear_0_35" x1="21.42" y1="17.9244" x2="49.2331" y2="17.9244" gradientUnits="userSpaceOnUse">
<stop offset="0.03" stop-color="#282D6F"/>
<stop offset="0.25" stop-color="#254A89"/>
<stop offset="0.73" stop-color="#2096CC"/>
<stop offset="1" stop-color="#1DC4F4"/>
</linearGradient>
<linearGradient id="paint3_linear_0_35" x1="31.9073" y1="25.0587" x2="51.4214" y2="25.0587" gradientUnits="userSpaceOnUse">
<stop offset="0.19" stop-color="#282D6F"/>
<stop offset="1" stop-color="#1DC4F4"/>
</linearGradient>
<linearGradient id="paint4_linear_0_35" x1="170.194" y1="2.92375" x2="130.099" y2="2.92375" gradientUnits="userSpaceOnUse">
<stop stop-color="#282D6F"/>
<stop offset="0.13" stop-color="#273677"/>
<stop offset="0.33" stop-color="#254F8D"/>
<stop offset="0.59" stop-color="#2278B1"/>
<stop offset="0.9" stop-color="#1EB0E2"/>
<stop offset="1" stop-color="#1DC4F4"/>
</linearGradient>
<linearGradient id="paint5_linear_0_35" x1="159.962" y1="10.5153" x2="125.946" y2="10.5153" gradientUnits="userSpaceOnUse">
<stop stop-color="#282D6F"/>
<stop offset="0.13" stop-color="#273677"/>
<stop offset="0.33" stop-color="#254F8D"/>
<stop offset="0.59" stop-color="#2278B1"/>
<stop offset="0.9" stop-color="#1EB0E2"/>
<stop offset="1" stop-color="#1DC4F4"/>
</linearGradient>
<linearGradient id="paint6_linear_0_35" x1="149.24" y1="17.2922" x2="122.035" y2="17.2922" gradientUnits="userSpaceOnUse">
<stop stop-color="#282D6F"/>
<stop offset="0.13" stop-color="#273677"/>
<stop offset="0.33" stop-color="#254F8D"/>
<stop offset="0.59" stop-color="#2278B1"/>
<stop offset="0.9" stop-color="#1EB0E2"/>
<stop offset="1" stop-color="#1DC4F4"/>
</linearGradient>
<linearGradient id="paint7_linear_0_35" x1="134.981" y1="24.2685" x2="118.005" y2="24.2685" gradientUnits="userSpaceOnUse">
<stop stop-color="#282D6F"/>
<stop offset="0.13" stop-color="#273677"/>
<stop offset="0.33" stop-color="#254F8D"/>
<stop offset="0.59" stop-color="#2278B1"/>
<stop offset="0.9" stop-color="#1EB0E2"/>
<stop offset="1" stop-color="#1DC4F4"/>
</linearGradient>
</defs>
</svg>
