<svg width="18" height="18" viewBox="0 0 18 18" fill="none" xmlns="http://www.w3.org/2000/svg">
<path d="M13.53 10.1626C13.215 10.4701 13.035 10.9126 13.08 11.3851C13.1475 12.1951 13.89 12.7876 14.7 12.7876H16.125V13.6801C16.125 15.2326 14.8575 16.5001 13.305 16.5001H4.695C3.1425 16.5001 1.875 15.2326 1.875 13.6801V8.63263C1.875 7.08013 3.1425 5.81262 4.695 5.81262H13.305C14.8575 5.81262 16.125 7.08013 16.125 8.63263V9.71263H14.61C14.19 9.71263 13.8075 9.87761 13.53 10.1626Z" stroke="#E53935" stroke-width="1.5" stroke-linecap="round" stroke-linejoin="round"/>
<path d="M1.875 9.3076V5.88014C1.875 4.98764 2.4225 4.19261 3.255 3.87761L9.21 1.62761C10.14 1.27511 11.1375 1.96513 11.1375 2.96263V5.81262" stroke="#E53935" stroke-width="1.5" stroke-linecap="round" stroke-linejoin="round"/>
<path d="M16.9191 10.4776V12.0227C16.9191 12.4352 16.5891 12.7726 16.1691 12.7876H14.6991C13.8891 12.7876 13.1466 12.1951 13.0791 11.3851C13.0341 10.9126 13.2141 10.4701 13.5291 10.1626C13.8066 9.87763 14.1891 9.71265 14.6091 9.71265H16.1691C16.5891 9.72765 16.9191 10.0651 16.9191 10.4776Z" stroke="#E53935" stroke-width="1.5" stroke-linecap="round" stroke-linejoin="round"/>
<path d="M5.25 9H10.5" stroke="#E53935" stroke-width="1.5" stroke-linecap="round" stroke-linejoin="round"/>
</svg>
