<svg width="20" height="20" viewBox="0 0 20 20" fill="none" xmlns="http://www.w3.org/2000/svg">
<g clip-path="url(#clip0_841_10679)">
<path d="M17.8503 9.10156C17.9995 9.03575 18.1261 8.92762 18.2144 8.79056C18.3028 8.65351 18.3489 8.49355 18.3473 8.33051C18.3456 8.16746 18.2961 8.00849 18.2049 7.87329C18.1138 7.73809 17.985 7.6326 17.8345 7.56989L10.692 4.31656C10.4749 4.21751 10.239 4.16626 10.0003 4.16626C9.76166 4.16626 9.52579 4.21751 9.30865 4.31656L2.16699 7.56656C2.01863 7.63153 1.89242 7.73834 1.80379 7.8739C1.71517 8.00947 1.66797 8.16793 1.66797 8.32989C1.66797 8.49186 1.71517 8.65031 1.80379 8.78588C1.89242 8.92144 2.01863 9.02825 2.16699 9.09322L9.30865 12.3499C9.52579 12.4489 9.76166 12.5002 10.0003 12.5002C10.239 12.5002 10.4749 12.4489 10.692 12.3499L17.8503 9.10156Z" stroke="#2F80ED" stroke-width="1.66667" stroke-linecap="round" stroke-linejoin="round"/>
<path d="M18.333 8.33337V13.3334" stroke="#2F80ED" stroke-width="1.66667" stroke-linecap="round" stroke-linejoin="round"/>
<path d="M5 10.4165V13.3332C5 13.9962 5.52678 14.6321 6.46447 15.1009C7.40215 15.5698 8.67392 15.8332 10 15.8332C11.3261 15.8332 12.5979 15.5698 13.5355 15.1009C14.4732 14.6321 15 13.9962 15 13.3332V10.4165" stroke="#2F80ED" stroke-width="1.66667" stroke-linecap="round" stroke-linejoin="round"/>
</g>
<defs>
<clipPath id="clip0_841_10679">
<rect width="20" height="20" fill="white"/>
</clipPath>
</defs>
</svg>
