<svg preserveAspectRatio="none" width="100%" height="100%" overflow="visible" style="display: block;" viewBox="0 0 30.6112 30.6112" fill="none" xmlns="http://www.w3.org/2000/svg">
<g id="Icon">
<path id="Vector" d="M20.4072 26.7849V24.234C20.4072 22.8809 19.8697 21.5832 18.9129 20.6264C17.9561 19.6697 16.6584 19.1321 15.3053 19.1321H7.65253C6.29943 19.1321 5.00175 19.6697 4.04497 20.6264C3.08818 21.5832 2.55067 22.8809 2.55067 24.234V26.7849" stroke="var(--stroke-0, white)" stroke-width="2.55093" stroke-linecap="round" stroke-linejoin="round"/>
<path id="Vector_2" d="M11.4788 14.0303C14.2965 14.0303 16.5807 11.7461 16.5807 8.92841C16.5807 6.11073 14.2965 3.82655 11.4788 3.82655C8.66112 3.82655 6.37694 6.11073 6.37694 8.92841C6.37694 11.7461 8.66112 14.0303 11.4788 14.0303Z" stroke="var(--stroke-0, white)" stroke-width="2.55093" stroke-linecap="round" stroke-linejoin="round"/>
<path id="Vector_3" d="M28.0598 26.7847V24.2338C28.0589 23.1034 27.6827 22.0053 26.9901 21.1119C26.2976 20.2185 25.3279 19.5804 24.2334 19.2978" stroke="var(--stroke-0, white)" stroke-width="2.55093" stroke-linecap="round" stroke-linejoin="round"/>
<path id="Vector_4" d="M20.4071 3.99217C21.5045 4.27315 22.4772 4.9114 23.1719 5.80628C23.8665 6.70115 24.2435 7.80177 24.2435 8.9346C24.2435 10.0674 23.8665 11.168 23.1719 12.0629C22.4772 12.9578 21.5045 13.596 20.4071 13.877" stroke="var(--stroke-0, white)" stroke-width="2.55093" stroke-linecap="round" stroke-linejoin="round"/>
</g>
</svg>
