<svg preserveAspectRatio="none" width="100%" height="100%" overflow="visible" style="display: block;" viewBox="0 0 30.6112 30.6112" fill="none" xmlns="http://www.w3.org/2000/svg">
<g id="Icon">
<path id="Vector" d="M19.7405 16.4407L21.6729 27.3153C21.6945 27.4433 21.6765 27.5749 21.6214 27.6925C21.5662 27.8101 21.4764 27.908 21.3641 27.9732C21.2518 28.0383 21.1222 28.0677 20.9928 28.0572C20.8634 28.0468 20.7402 27.9971 20.6397 27.9147L16.0736 24.4876C15.8531 24.3229 15.5854 24.2339 15.3102 24.2339C15.0351 24.2339 14.7673 24.3229 14.5468 24.4876L9.97303 27.9135C9.87268 27.9957 9.74965 28.0453 9.62036 28.0557C9.49107 28.0662 9.36166 28.037 9.24941 27.972C9.13716 27.907 9.04739 27.8093 8.99209 27.692C8.93679 27.5746 8.91859 27.4432 8.9399 27.3153L10.871 16.4407" stroke="var(--stroke-0, white)" stroke-width="2.55093" stroke-linecap="round" stroke-linejoin="round"/>
<path id="Vector_2" d="M15.3052 17.8567C19.5317 17.8567 22.958 14.4304 22.958 10.2039C22.958 5.9774 19.5317 2.55113 15.3052 2.55113C11.0786 2.55113 7.65238 5.9774 7.65238 10.2039C7.65238 14.4304 11.0786 17.8567 15.3052 17.8567Z" stroke="var(--stroke-0, white)" stroke-width="2.55093" stroke-linecap="round" stroke-linejoin="round"/>
</g>
</svg>
