<svg preserveAspectRatio="none" width="100%" height="100%" overflow="visible" style="display: block;" viewBox="0 0 30.6112 30.6112" fill="none" xmlns="http://www.w3.org/2000/svg">
<g id="Icon">
<path id="Vector" d="M22.7035 24.4891L20.4076 14.0303L24.8718 9.56619C26.785 7.65299 27.4227 5.10206 26.785 3.82659C25.5095 3.18886 22.9586 3.82659 21.0454 5.73979L16.5813 10.2039L6.12244 7.90808C5.48471 7.78053 4.97452 8.03563 4.71943 8.54581L4.33679 9.18355C4.0817 9.82128 4.20924 10.459 4.71943 10.8417L11.4794 15.3058L8.92846 19.1322H5.10207L3.8266 20.4076L7.653 22.9586L10.2039 26.785L11.4794 25.5095V21.6831L15.3058 19.1322L19.7699 25.8921C20.1526 26.4023 20.7903 26.5299 21.428 26.2748L22.0658 26.0197C22.5759 25.637 22.831 25.1269 22.7035 24.4891Z" stroke="var(--stroke-0, white)" stroke-width="2.55093" stroke-linecap="round" stroke-linejoin="round"/>
</g>
</svg>
