<svg preserveAspectRatio="none" width="100%" height="100%" overflow="visible" style="display: block;" viewBox="0 0 30.6112 30.6112" fill="none" xmlns="http://www.w3.org/2000/svg">
<g id="Icon">
<path id="Vector" d="M25.5095 16.5811C25.5095 22.9584 21.0453 26.1471 15.7394 27.9965C15.4616 28.0906 15.1598 28.0861 14.8849 27.9837C9.56616 26.1471 5.10204 22.9584 5.10204 16.5811V7.65283C5.10204 7.31455 5.23642 6.99013 5.47561 6.75094C5.71481 6.51174 6.03923 6.37736 6.3775 6.37736C8.92843 6.37736 12.1171 4.8468 14.3364 2.9081C14.6066 2.67724 14.9504 2.55039 15.3058 2.55039C15.6612 2.55039 16.0049 2.67724 16.2751 2.9081C18.5072 4.85956 21.6831 6.37736 24.234 6.37736C24.5723 6.37736 24.8967 6.51174 25.1359 6.75094C25.3751 6.99013 25.5095 7.31455 25.5095 7.65283V16.5811Z" stroke="var(--stroke-0, white)" stroke-width="2.55093" stroke-linecap="round" stroke-linejoin="round"/>
<path id="Vector_2" d="M11.4792 15.3057L14.0301 17.8566L19.132 12.7548" stroke="var(--stroke-0, white)" stroke-width="2.55093" stroke-linecap="round" stroke-linejoin="round"/>
</g>
</svg>
