<svg preserveAspectRatio="none" width="100%" height="100%" overflow="visible" style="display: block;" viewBox="0 0 20.4074 20.4074" fill="none" xmlns="http://www.w3.org/2000/svg">
<g id="Icon">
<path id="Vector" d="M18.7062 14.3871V16.938C18.7071 17.1749 18.6586 17.4093 18.5638 17.6262C18.4689 17.8432 18.3298 18.038 18.1553 18.1981C17.9808 18.3582 17.7747 18.4801 17.5504 18.5559C17.3261 18.6318 17.0884 18.66 16.8525 18.6387C14.236 18.3544 11.7226 17.4603 9.51434 16.0282C7.45984 14.7227 5.71799 12.9808 4.41248 10.9263C2.97543 8.70806 2.08113 6.18246 1.80202 3.55416C1.78078 3.31902 1.80872 3.08203 1.88408 2.85829C1.95944 2.63454 2.08056 2.42894 2.23974 2.25456C2.39891 2.08019 2.59265 1.94088 2.80861 1.84548C3.02458 1.75009 3.25804 1.70071 3.49414 1.70048H6.04507C6.45773 1.69642 6.85779 1.84255 7.17068 2.11164C7.48357 2.38072 7.68794 2.7544 7.74569 3.16302C7.85336 3.97937 8.05304 4.78093 8.34091 5.55239C8.45531 5.85674 8.48007 6.1875 8.41226 6.50548C8.34444 6.82347 8.18689 7.11535 7.95827 7.34654L6.87838 8.42644C8.08884 10.5552 9.85145 12.3178 11.9802 13.5283L13.0601 12.4484C13.2913 12.2198 13.5832 12.0622 13.9012 11.9944C14.2192 11.9266 14.5499 11.9514 14.8543 12.0658C15.6257 12.3536 16.4273 12.5533 17.2437 12.661C17.6567 12.7193 18.0339 12.9273 18.3036 13.2456C18.5733 13.5638 18.7165 13.9701 18.7062 14.3871Z" stroke="var(--stroke-0, #90A1B9)" stroke-width="1.70062" stroke-linecap="round" stroke-linejoin="round"/>
</g>
</svg>
