<svg preserveAspectRatio="none" width="100%" height="100%" overflow="visible" style="display: block;" viewBox="0 0 27.9954 27.9954" fill="none" xmlns="http://www.w3.org/2000/svg">
<g id="Icon">
<path id="Vector" d="M18.6636 3.49942C18.0449 3.49942 17.4515 3.74522 17.014 4.18273C16.5764 4.62024 16.3307 5.21364 16.3307 5.83237V12.8312C16.3307 13.45 16.5764 14.0434 17.014 14.4809C17.4515 14.9184 18.0449 15.1642 18.6636 15.1642C18.973 15.1642 19.2697 15.2871 19.4884 15.5058C19.7072 15.7246 19.8301 16.0213 19.8301 16.3307V17.4971C19.8301 18.1159 19.5843 18.7093 19.1468 19.1468C18.7093 19.5843 18.1159 19.8301 17.4971 19.8301C17.1878 19.8301 16.8911 19.953 16.6723 20.1717C16.4535 20.3905 16.3307 20.6872 16.3307 20.9966V23.3295C16.3307 23.6389 16.4535 23.9356 16.6723 24.1543C16.8911 24.3731 17.1878 24.496 17.4971 24.496C19.3533 24.496 21.1335 23.7586 22.4461 22.4461C23.7586 21.1335 24.496 19.3533 24.496 17.4971V5.83237C24.496 5.21364 24.2502 4.62024 23.8127 4.18273C23.3752 3.74522 22.7818 3.49942 22.163 3.49942H18.6636Z" stroke="var(--stroke-0, #FFC107)" stroke-width="2.33295" stroke-linecap="round" stroke-linejoin="round"/>
<path id="Vector_2" d="M5.83237 3.49942C5.21364 3.49942 4.62024 3.74522 4.18273 4.18273C3.74522 4.62024 3.49942 5.21364 3.49942 5.83237V12.8312C3.49942 13.45 3.74522 14.0434 4.18273 14.4809C4.62024 14.9184 5.21364 15.1642 5.83237 15.1642C6.14174 15.1642 6.43844 15.2871 6.6572 15.5058C6.87595 15.7246 6.99885 16.0213 6.99885 16.3307V17.4971C6.99885 18.1159 6.75306 18.7093 6.31554 19.1468C5.87803 19.5843 5.28464 19.8301 4.6659 19.8301C4.35653 19.8301 4.05983 19.953 3.84108 20.1717C3.62232 20.3905 3.49942 20.6872 3.49942 20.9966V23.3295C3.49942 23.6389 3.62232 23.9356 3.84108 24.1543C4.05983 24.3731 4.35653 24.496 4.6659 24.496C6.52211 24.496 8.30229 23.7586 9.61483 22.4461C10.9274 21.1335 11.6647 19.3533 11.6647 17.4971V5.83237C11.6647 5.21364 11.419 4.62024 10.9814 4.18273C10.5439 3.74522 9.95054 3.49942 9.3318 3.49942H5.83237Z" stroke="var(--stroke-0, #FFC107)" stroke-width="2.33295" stroke-linecap="round" stroke-linejoin="round"/>
</g>
</svg>
