<svg preserveAspectRatio="none" width="100%" height="100%" overflow="visible" style="display: block;" viewBox="0 0 15.996 15.996" fill="none" xmlns="http://www.w3.org/2000/svg">
<g id="Icon" clip-path="url(#clip0_0_150)">
<path id="Vector" d="M7.68141 1.52962C7.71062 1.47061 7.75574 1.42093 7.81168 1.3862C7.86762 1.35147 7.93216 1.33307 7.998 1.33307C8.06384 1.33307 8.12838 1.35147 8.18432 1.3862C8.24026 1.42093 8.28538 1.47061 8.31459 1.52962L9.8542 4.64817C9.95563 4.85343 10.1053 5.03101 10.2905 5.16568C10.4757 5.30034 10.6907 5.38806 10.9173 5.42131L14.3604 5.92519C14.4256 5.93464 14.4869 5.96216 14.5374 6.00463C14.5878 6.04711 14.6253 6.10284 14.6457 6.16553C14.6661 6.22822 14.6685 6.29536 14.6527 6.35937C14.6369 6.42337 14.6036 6.48168 14.5564 6.5277L12.0663 8.95243C11.9021 9.11246 11.7792 9.30999 11.7083 9.52804C11.6374 9.74608 11.6205 9.9781 11.6591 10.2041L12.2469 13.6299C12.2585 13.6951 12.2514 13.7623 12.2266 13.8237C12.2018 13.8851 12.1602 13.9383 12.1067 13.9772C12.0531 14.0161 11.9897 14.0392 11.9236 14.0438C11.8575 14.0483 11.7915 14.0343 11.7331 14.0032L8.65517 12.3849C8.45236 12.2784 8.22673 12.2228 7.99767 12.2228C7.7686 12.2228 7.54297 12.2784 7.34016 12.3849L4.26293 14.0032C4.2045 14.0341 4.13856 14.048 4.07262 14.0433C4.00667 14.0386 3.94336 14.0155 3.88989 13.9767C3.83642 13.9378 3.79494 13.8847 3.77016 13.8234C3.74538 13.7621 3.7383 13.695 3.74973 13.6299L4.33692 10.2048C4.3757 9.97866 4.3589 9.74649 4.28795 9.52832C4.21701 9.31014 4.09405 9.11249 3.92968 8.95243L1.43964 6.52837C1.39205 6.4824 1.35832 6.42399 1.34231 6.35979C1.32629 6.29559 1.32863 6.22819 1.34905 6.16525C1.36947 6.10232 1.40716 6.04638 1.45782 6.00382C1.50848 5.96126 1.57008 5.93378 1.63559 5.92452L5.07806 5.42131C5.30484 5.38832 5.52021 5.30071 5.70563 5.16603C5.89105 5.03135 6.04096 4.85363 6.14246 4.64817L7.68141 1.52962Z" fill="var(--fill-0, #FFC107)" stroke="var(--stroke-0, #FFC107)" stroke-width="1.333" stroke-linecap="round" stroke-linejoin="round"/>
</g>
<defs>
<clipPath id="clip0_0_150">
<rect width="15.996" height="15.996" fill="white"/>
</clipPath>
</defs>
</svg>
