<svg preserveAspectRatio="none" width="100%" height="100%" overflow="visible" style="display: block;" viewBox="0 0 23.9989 23.9989" fill="none" xmlns="http://www.w3.org/2000/svg">
<g id="Icon">
<path id="Vector" d="M17.8 19.2L16 11L19.5 7.5C21 6 21.5 4 21 3C20 2.5 18 3 16.5 4.5L13 8L4.8 6.2C4.3 6.1 3.9 6.3 3.7 6.7L3.4 7.2C3.2 7.7 3.3 8.2 3.7 8.5L9 12L7 15H4L3 16L6 18L8 21L9 20V17L12 15L15.5 20.3C15.8 20.7 16.3 20.8 16.8 20.6L17.3 20.4C17.7 20.1 17.9 19.7 17.8 19.2Z" stroke="var(--stroke-0, white)" stroke-width="1.99991" stroke-linecap="round" stroke-linejoin="round"/>
</g>
</svg>
