<svg preserveAspectRatio="none" width="100%" height="100%" overflow="visible" style="display: block;" viewBox="0 0 20 20" fill="none" xmlns="http://www.w3.org/2000/svg">
<g id="Icon">
<path id="Vector" d="M17.8502 9.10151C17.9994 9.0357 18.126 8.92757 18.2144 8.79051C18.3027 8.65346 18.3489 8.4935 18.3472 8.33045C18.3455 8.16741 18.296 8.00844 18.2049 7.87324C18.1137 7.73804 17.9849 7.63255 17.8344 7.56984L10.6919 4.31651C10.4748 4.21746 10.2389 4.16621 10.0002 4.16621C9.76159 4.16621 9.52572 4.21746 9.30858 4.31651L2.16691 7.56651C2.01855 7.63148 1.89234 7.73829 1.80372 7.87385C1.71509 8.00942 1.6679 8.16788 1.6679 8.32984C1.6679 8.49181 1.71509 8.65026 1.80372 8.78583C1.89234 8.92139 2.01855 9.0282 2.16691 9.09317L9.30858 12.3498C9.52572 12.4489 9.76159 12.5001 10.0002 12.5001C10.2389 12.5001 10.4748 12.4489 10.6919 12.3498L17.8502 9.10151Z" stroke="var(--stroke-0, #2F80ED)" stroke-width="1.66667" stroke-linecap="round" stroke-linejoin="round"/>
<path id="Vector_2" d="M18.3332 8.33339V13.3334" stroke="var(--stroke-0, #2F80ED)" stroke-width="1.66667" stroke-linecap="round" stroke-linejoin="round"/>
<path id="Vector_3" d="M5 10.4166V13.3332C5 13.9963 5.52678 14.6322 6.46447 15.101C7.40215 15.5698 8.67392 15.8332 10 15.8332C11.3261 15.8332 12.5979 15.5698 13.5355 15.101C14.4732 14.6322 15 13.9963 15 13.3332V10.4166" stroke="var(--stroke-0, #2F80ED)" stroke-width="1.66667" stroke-linecap="round" stroke-linejoin="round"/>
</g>
</svg>
