<svg preserveAspectRatio="none" width="100%" height="100%" overflow="visible" style="display: block;" viewBox="0 0 20 20" fill="none" xmlns="http://www.w3.org/2000/svg">
<g id="airplane">
<path id="Vector" d="M7.525 18.075L9.46667 16.4417C9.75833 16.1917 10.2417 16.1917 10.5333 16.4417L12.475 18.075C12.925 18.3 13.475 18.075 13.6417 17.5917L14.0083 16.4833C14.1 16.2167 14.0083 15.825 13.8083 15.625L11.9167 13.725C11.775 13.5917 11.6667 13.325 11.6667 13.1333V10.7583C11.6667 10.4083 11.925 10.2417 12.25 10.375L16.3417 12.1417C16.9833 12.4167 17.5083 12.075 17.5083 11.375V10.3C17.5083 9.74167 17.0917 9.1 16.575 8.88333L11.9167 6.875C11.7833 6.81667 11.6667 6.64167 11.6667 6.49167V3.99167C11.6667 3.20833 11.0917 2.28333 10.3917 1.925C10.1417 1.8 9.85 1.8 9.6 1.925C8.9 2.28333 8.325 3.21667 8.325 4V6.5C8.325 6.65 8.20833 6.825 8.075 6.88333L3.425 8.89167C2.90833 9.1 2.49167 9.74167 2.49167 10.3V11.375C2.49167 12.075 3.01667 12.4167 3.65833 12.1417L7.75 10.375C8.06667 10.2333 8.33333 10.4083 8.33333 10.7583V13.1333C8.33333 13.325 8.225 13.5917 8.09167 13.725L6.2 15.625C6 15.825 5.90833 16.2083 6 16.4833L6.36667 17.5917C6.51667 18.075 7.06667 18.3083 7.525 18.075Z" stroke="var(--stroke-0, #0A9940)" stroke-width="1.25" stroke-linecap="round" stroke-linejoin="round"/>
<g id="Vector_2" opacity="0">
</g>
</g>
</svg>
