<svg preserveAspectRatio="none" width="100%" height="100%" overflow="visible" style="display: block;" viewBox="0 0 23.9989 23.9989" fill="none" xmlns="http://www.w3.org/2000/svg">
<g id="Icon">
<path id="Vector" d="M15.4767 12.8894L16.9917 21.4154C17.0086 21.5158 16.9946 21.619 16.9513 21.7112C16.908 21.8033 16.8377 21.8801 16.7496 21.9312C16.6615 21.9823 16.56 22.0053 16.4585 21.9971C16.357 21.9889 16.2604 21.95 16.1817 21.8854L12.6017 19.1984C12.4289 19.0693 12.2189 18.9995 12.0032 18.9995C11.7874 18.9995 11.5775 19.0693 11.4047 19.1984L7.81868 21.8844C7.74 21.9488 7.64354 21.9878 7.54217 21.996C7.44081 22.0041 7.33935 21.9812 7.25134 21.9303C7.16333 21.8793 7.09295 21.8027 7.0496 21.7107C7.00624 21.6188 6.99197 21.5157 7.00868 21.4154L8.52268 12.8894" stroke="var(--stroke-0, white)" stroke-width="1.99991" stroke-linecap="round" stroke-linejoin="round"/>
<path id="Vector_2" d="M11.9997 13.9999C15.3134 13.9999 17.9997 11.3136 17.9997 7.99991C17.9997 4.6862 15.3134 1.99991 11.9997 1.99991C8.68602 1.99991 5.99972 4.6862 5.99972 7.99991C5.99972 11.3136 8.68602 13.9999 11.9997 13.9999Z" stroke="var(--stroke-0, white)" stroke-width="1.99991" stroke-linecap="round" stroke-linejoin="round"/>
</g>
</svg>
