<svg preserveAspectRatio="none" width="100%" height="100%" overflow="visible" style="display: block;" viewBox="0 0 16 16" fill="none" xmlns="http://www.w3.org/2000/svg">
<g id="call">
<g id="call_2">
<path id="Vector" d="M14.6467 12.22C14.6467 12.46 14.5933 12.7067 14.48 12.9467C14.3667 13.1867 14.22 13.4133 14.0267 13.6267C13.7 13.9867 13.34 14.2467 12.9333 14.4133C12.5333 14.58 12.1 14.6667 11.6333 14.6667C10.9533 14.6667 10.2267 14.5067 9.46 14.18C8.69333 13.8533 7.92667 13.4133 7.16667 12.86C6.4 12.3 5.67333 11.68 4.98 10.9933C4.29333 10.3 3.67333 9.57333 3.12 8.81333C2.57333 8.05333 2.13333 7.29333 1.81333 6.54C1.49333 5.78 1.33333 5.05333 1.33333 4.36C1.33333 3.90667 1.41333 3.47333 1.57333 3.07333C1.73333 2.66667 1.98667 2.29333 2.34 1.96C2.76667 1.54 3.23333 1.33333 3.72667 1.33333C3.91333 1.33333 4.1 1.37333 4.26667 1.45333C4.44 1.53333 4.59333 1.65333 4.71333 1.82667L6.26 4.00667C6.38 4.17333 6.46667 4.32667 6.52667 4.47333C6.58667 4.61333 6.62 4.75333 6.62 4.88C6.62 5.04 6.57333 5.2 6.48 5.35333C6.39333 5.50667 6.26667 5.66667 6.10667 5.82667L5.6 6.35333C5.52667 6.42667 5.49333 6.51333 5.49333 6.62C5.49333 6.67333 5.5 6.72 5.51333 6.77333C5.53333 6.82667 5.55333 6.86667 5.56667 6.90667C5.68667 7.12667 5.89333 7.41333 6.18667 7.76C6.48667 8.10667 6.80667 8.46 7.15333 8.81333C7.51333 9.16667 7.86 9.49333 8.21333 9.79333C8.56 10.0867 8.84667 10.2867 9.07333 10.4067C9.10667 10.42 9.14667 10.44 9.19333 10.46C9.24667 10.48 9.3 10.4867 9.36 10.4867C9.47333 10.4867 9.56 10.4467 9.63333 10.3733L10.14 9.87333C10.3067 9.70667 10.4667 9.58 10.62 9.5C10.7733 9.40667 10.9267 9.36 11.0933 9.36C11.22 9.36 11.3533 9.38667 11.5 9.44667C11.6467 9.50667 11.8 9.59333 11.9667 9.70667L14.1733 11.2733C14.3467 11.3933 14.4667 11.5333 14.54 11.7C14.6067 11.8667 14.6467 12.0333 14.6467 12.22Z" stroke="var(--stroke-0, #0A2A66)" stroke-width="1.28" stroke-miterlimit="10"/>
</g>
<g id="Vector_2" opacity="0">
</g>
</g>
</svg>
