<svg preserveAspectRatio="none" width="100%" height="100%" overflow="visible" style="display: block;" viewBox="0 0 27.9954 27.9954" fill="none" xmlns="http://www.w3.org/2000/svg">
<g id="Icon">
<path id="Vector" d="M18.6635 3.49902C18.0448 3.49902 17.4514 3.74482 17.0139 4.18233C16.5764 4.61984 16.3306 5.21324 16.3306 5.83197V12.8308C16.3306 13.4496 16.5764 14.043 17.0139 14.4805C17.4514 14.918 18.0448 15.1638 18.6635 15.1638C18.9729 15.1638 19.2696 15.2867 19.4883 15.5054C19.7071 15.7242 19.83 16.0209 19.83 16.3302V17.4967C19.83 18.1155 19.5842 18.7089 19.1467 19.1464C18.7092 19.5839 18.1158 19.8297 17.497 19.8297C17.1877 19.8297 16.891 19.9526 16.6722 20.1713C16.4535 20.3901 16.3306 20.6868 16.3306 20.9961V23.3291C16.3306 23.6385 16.4535 23.9352 16.6722 24.1539C16.891 24.3727 17.1877 24.4956 17.497 24.4956C19.3533 24.4956 21.1334 23.7582 22.446 22.4457C23.7585 21.1331 24.4959 19.3529 24.4959 17.4967V5.83197C24.4959 5.21324 24.2501 4.61984 23.8126 4.18233C23.3751 3.74482 22.7817 3.49902 22.1629 3.49902H18.6635Z" stroke="var(--stroke-0, #FFC107)" stroke-width="2.33295" stroke-linecap="round" stroke-linejoin="round"/>
<path id="Vector_2" d="M5.83246 3.49902C5.21372 3.49902 4.62033 3.74482 4.18282 4.18233C3.7453 4.61984 3.49951 5.21324 3.49951 5.83197V12.8308C3.49951 13.4496 3.7453 14.043 4.18282 14.4805C4.62033 14.918 5.21372 15.1638 5.83246 15.1638C6.14183 15.1638 6.43853 15.2867 6.65728 15.5054C6.87604 15.7242 6.99894 16.0209 6.99894 16.3302V17.4967C6.99894 18.1155 6.75314 18.7089 6.31563 19.1464C5.87812 19.5839 5.28472 19.8297 4.66599 19.8297C4.35662 19.8297 4.05992 19.9526 3.84116 20.1713C3.62241 20.3901 3.49951 20.6868 3.49951 20.9961V23.3291C3.49951 23.6385 3.62241 23.9352 3.84116 24.1539C4.05992 24.3727 4.35662 24.4956 4.66599 24.4956C6.5222 24.4956 8.30238 23.7582 9.61492 22.4457C10.9275 21.1331 11.6648 19.3529 11.6648 17.4967V5.83197C11.6648 5.21324 11.419 4.61984 10.9815 4.18233C10.544 3.74482 9.95062 3.49902 9.33189 3.49902H5.83246Z" stroke="var(--stroke-0, #FFC107)" stroke-width="2.33295" stroke-linecap="round" stroke-linejoin="round"/>
</g>
</svg>
