<svg preserveAspectRatio="none" width="100%" height="100%" overflow="visible" style="display: block;" viewBox="0 0 21.1176 21.1176" fill="none" xmlns="http://www.w3.org/2000/svg">
<g id="sms-star">
<path id="Vector" d="M19.3578 10.1189V13.6385C19.3578 16.7181 17.598 18.038 14.9583 18.038H6.15931C3.51961 18.038 1.7598 16.7181 1.7598 13.6385V7.47917C1.7598 4.39951 3.51961 3.07966 6.15931 3.07966H10.5588" stroke="var(--stroke-0, #90A1B9)" stroke-width="1.31985" stroke-miterlimit="10" stroke-linecap="round" stroke-linejoin="round"/>
<path id="Vector_2" d="M6.15931 7.91912L8.91341 10.1189C9.81971 10.8404 11.3067 10.8404 12.213 10.1189" stroke="var(--stroke-0, #90A1B9)" stroke-width="1.31985" stroke-miterlimit="10" stroke-linecap="round" stroke-linejoin="round"/>
<g id="Group">
<path id="Vector_3" d="M17.1405 2.48133L17.3869 2.98286C17.5101 3.22924 17.818 3.45802 18.0908 3.51081L18.4252 3.5636C19.4283 3.73078 19.6658 4.4699 18.9443 5.20022L18.6363 5.50818C18.434 5.71935 18.3196 6.12411 18.3812 6.40568L18.4252 6.59047C18.6979 7.80473 18.0556 8.27107 16.9997 7.63754L16.771 7.50556C16.4982 7.34718 16.0582 7.34718 15.7855 7.50556L15.5567 7.63754C14.492 8.27987 13.8497 7.80473 14.1312 6.59047L14.1752 6.40568C14.2368 6.12411 14.1225 5.71935 13.9201 5.50818L13.6121 5.20022C12.8906 4.4699 13.1282 3.73078 14.1312 3.5636L14.4656 3.51081C14.7296 3.46681 15.0463 3.22924 15.1695 2.98286L15.4159 2.48133C15.891 1.52223 16.6654 1.52223 17.1405 2.48133Z" stroke="var(--stroke-0, #90A1B9)" stroke-width="1.31985" stroke-linecap="round" stroke-linejoin="round"/>
</g>
<g id="Vector_4" opacity="0">
</g>
</g>
</svg>
