<svg preserveAspectRatio="none" width="100%" height="100%" overflow="visible" style="display: block;" viewBox="0 0 25 25" fill="none" xmlns="http://www.w3.org/2000/svg">
<g id="instagram-line">
<path id="Vector" d="M12.5017 9.37565C10.7752 9.37565 9.37663 10.7747 9.37663 12.5007C9.37663 14.227 10.7757 15.6257 12.5017 15.6257C14.228 15.6257 15.6267 14.2266 15.6267 12.5007C15.6267 10.7743 14.2276 9.37565 12.5017 9.37565ZM12.5017 7.29232C15.3771 7.29232 17.71 9.62263 17.71 12.5007C17.71 15.3762 15.3797 17.709 12.5017 17.709C9.62614 17.709 7.29329 15.3787 7.29329 12.5007C7.29329 9.62516 9.62361 7.29232 12.5017 7.29232ZM19.2725 7.03102C19.2725 7.74988 18.6883 8.33312 17.9704 8.33312C17.2515 8.33312 16.6683 7.74898 16.6683 7.03102C16.6683 6.31305 17.2524 5.72982 17.9704 5.72982C18.6874 5.72891 19.2725 6.31305 19.2725 7.03102ZM12.5017 4.16732C9.92405 4.16732 9.50392 4.17414 8.30506 4.22753C7.48826 4.26587 6.94074 4.37572 6.43202 4.57322C5.97994 4.74856 5.65383 4.95792 5.30636 5.30539C4.95756 5.65419 4.74857 5.97943 4.57394 6.43172C4.37598 6.94161 4.26616 7.48827 4.2285 8.30393C4.1746 9.45398 4.16829 9.85591 4.16829 12.5007C4.16829 15.0783 4.17512 15.4984 4.22849 16.6971C4.26686 17.5136 4.37686 18.0619 4.57388 18.5694C4.74967 19.0221 4.95946 19.349 5.30525 19.6948C5.65543 20.0445 5.98164 20.2542 6.42964 20.4271C6.94456 20.6262 7.49173 20.7362 8.3049 20.7738C9.45496 20.8276 9.85689 20.834 12.5017 20.834C15.0793 20.834 15.4994 20.8271 16.6981 20.7738C17.5128 20.7355 18.0615 20.6252 18.5704 20.4284C19.0219 20.253 19.3498 20.0425 19.6958 19.697C20.046 19.3463 20.2553 19.0209 20.4284 18.5718C20.627 18.0588 20.7372 17.5109 20.7748 16.6974C20.8286 15.5473 20.835 15.1453 20.835 12.5007C20.835 9.92307 20.8281 9.50295 20.7748 8.30416C20.7364 7.48926 20.6261 6.9397 20.429 6.43105C20.2541 5.98021 20.044 5.6531 19.6969 5.30539C19.3475 4.95602 19.0231 4.74745 18.5705 4.57296C18.061 4.37517 17.5135 4.26519 16.6983 4.22754C15.5483 4.17362 15.1463 4.16732 12.5017 4.16732ZM12.5017 2.08398C15.3314 2.08398 15.6848 2.0944 16.7959 2.14648C17.9044 2.1977 18.6605 2.37305 19.3246 2.63086C20.0111 2.89562 20.591 3.25326 21.17 3.83224C21.7481 4.41124 22.1058 4.99284 22.3714 5.67773C22.6283 6.34093 22.8037 7.09787 22.8558 8.20638C22.9053 9.3175 22.9183 9.67079 22.9183 12.5007C22.9183 15.3305 22.9079 15.6838 22.8558 16.7949C22.8046 17.9035 22.6283 18.6595 22.3714 19.3236C22.1066 20.0102 21.7481 20.59 21.17 21.1691C20.591 21.7472 20.0085 22.1048 19.3246 22.3704C18.6605 22.6274 17.9044 22.8027 16.7959 22.8548C15.6848 22.9043 15.3314 22.9173 12.5017 22.9173C9.67176 22.9173 9.31846 22.9069 8.20736 22.8548C7.09885 22.8036 6.34364 22.6274 5.67871 22.3704C4.99294 22.1057 4.41221 21.7472 3.83322 21.1691C3.25423 20.59 2.89746 20.0076 2.63184 19.3236C2.37402 18.6595 2.19954 17.9035 2.14746 16.7949C2.09798 15.6838 2.08496 15.3305 2.08496 12.5007C2.08496 9.67079 2.09538 9.3175 2.14746 8.20638C2.19867 7.09701 2.37402 6.3418 2.63184 5.67773C2.89659 4.99197 3.25423 4.41124 3.83322 3.83224C4.41221 3.25326 4.99382 2.89648 5.67871 2.63086C6.34277 2.37305 7.09798 2.19857 8.20736 2.14648C9.31846 2.09701 9.67176 2.08398 12.5017 2.08398Z" fill="var(--fill-0, white)"/>
</g>
</svg>
