<svg preserveAspectRatio="none" width="100%" height="100%" overflow="visible" style="display: block;" viewBox="0 0 17.9565 17.9565" fill="none" xmlns="http://www.w3.org/2000/svg">
<g id="Icon" clip-path="url(#clip0_0_285)">
<path id="Vector" d="M16.4592 12.6594V14.9039C16.46 15.1123 16.4173 15.3186 16.3339 15.5095C16.2504 15.7004 16.128 15.8718 15.9744 16.0126C15.8209 16.1535 15.6396 16.2608 15.4422 16.3275C15.2448 16.3943 15.0357 16.4191 14.8281 16.4003C12.5258 16.1501 10.3143 15.3634 8.37125 14.1034C6.5635 12.9546 5.03084 11.422 3.88211 9.61423C2.61766 7.66235 1.83076 5.44007 1.58517 3.12742C1.56648 2.92052 1.59106 2.712 1.65737 2.51512C1.72368 2.31825 1.83026 2.13734 1.97032 1.98391C2.11037 1.83048 2.28084 1.70789 2.47087 1.62395C2.6609 1.54002 2.86633 1.49657 3.07407 1.49637H5.31864C5.68174 1.4928 6.03375 1.62138 6.30906 1.85814C6.58437 2.09491 6.7642 2.42371 6.81502 2.78326C6.90976 3.50157 7.08545 4.20686 7.33875 4.88567C7.43941 5.15346 7.4612 5.4445 7.40153 5.7243C7.34186 6.0041 7.20323 6.26092 7.00206 6.46435L6.05186 7.41455C7.11695 9.28768 8.66787 10.8386 10.541 11.9037L11.4912 10.9535C11.6946 10.7523 11.9515 10.6137 12.2313 10.554C12.511 10.4944 12.8021 10.5161 13.0699 10.6168C13.7487 10.8701 14.454 11.0458 15.1723 11.1405C15.5357 11.1918 15.8677 11.3749 16.1049 11.6549C16.3422 11.9349 16.4683 12.2924 16.4592 12.6594Z" stroke="var(--stroke-0, #90A1B9)" stroke-width="1.49638" stroke-linecap="round" stroke-linejoin="round"/>
</g>
<defs>
<clipPath id="clip0_0_285">
<rect width="17.9565" height="17.9565" fill="white"/>
</clipPath>
</defs>
</svg>
