<svg preserveAspectRatio="none" width="100%" height="100%" overflow="visible" style="display: block;" viewBox="0 0 80.5728 4.26505" fill="none" xmlns="http://www.w3.org/2000/svg">
<g id="Group">
<path id="Vector" d="M3.85866 3.39063H1.60033L1.22038 4.15682H1.04526e-06L2.11994 0.10567H3.34031L5.46025 4.15682H4.23987L3.85992 3.39063H3.85866ZM1.99287 2.59927H3.47367L2.73642 1.10713L1.99287 2.59927Z" fill="var(--fill-0, #252A65)"/>
<path id="Vector_2" d="M8.66517 4.15682H7.39196L5.34247 0.10567H6.56285L8.03737 3.1541L9.50937 0.10567H10.7298L8.66517 4.15682Z" fill="var(--fill-0, #252A65)"/>
<path id="Vector_3" d="M11.3922 4.15682V0.10567H12.4868V4.15682H11.3922Z" fill="var(--fill-0, #252A65)"/>
<path id="Vector_4" d="M17.0101 3.39063H14.7518L14.3718 4.15682H13.1515L15.2714 0.10567H16.4918L18.6117 4.15682H17.3913L17.0114 3.39063H17.0101ZM15.1443 2.59927H16.6251L15.8879 1.10713L15.1443 2.59927Z" fill="var(--fill-0, #252A65)"/>
<path id="Vector_5" d="M21.3091 0.98639V4.15685H20.2145V0.98639H18.4959V0.104446H23.0314V0.98639H21.3091Z" fill="var(--fill-0, #252A65)"/>
<path id="Vector_6" d="M23.7541 4.15682V0.10567H24.8487V4.15682H23.7541Z" fill="var(--fill-0, #252A65)"/>
<path id="Vector_7" d="M31.3588 2.13379C31.3588 2.48229 31.2946 2.78927 31.1676 3.05474C31.0405 3.3202 30.8568 3.54415 30.619 3.7228C30.3812 3.90145 30.0931 4.03733 29.7534 4.12791C29.4137 4.21849 29.0338 4.26505 28.611 4.26505C28.1883 4.26505 27.8071 4.21975 27.4649 4.12791C27.1227 4.03607 26.8333 3.90145 26.593 3.7228C26.3527 3.54415 26.1678 3.32146 26.0382 3.05474C25.9086 2.78801 25.8432 2.48103 25.8432 2.13379C25.8432 1.78655 25.9086 1.47831 26.0382 1.21284C26.1678 0.94738 26.3527 0.723435 26.593 0.544782C26.8333 0.366128 27.1227 0.230251 27.4649 0.139666C27.8071 0.0490816 28.1883 0.00253157 28.611 0.00253157C29.0338 0.00253157 29.415 0.0478235 29.7534 0.139666C30.0919 0.231509 30.3812 0.366128 30.619 0.544782C30.8568 0.723435 31.0392 0.946122 31.1676 1.21284C31.2959 1.47957 31.3588 1.78655 31.3588 2.13379ZM30.2529 2.13379C30.2529 1.98282 30.229 1.83184 30.1812 1.68086C30.1334 1.52989 30.0478 1.39527 29.9245 1.27575C29.8012 1.15623 29.6339 1.05809 29.4213 0.983865C29.2087 0.909636 28.9382 0.87189 28.6098 0.87189C28.3896 0.87189 28.1959 0.889508 28.0285 0.923478C27.8612 0.957447 27.7165 1.00525 27.5945 1.0669C27.4724 1.12855 27.3705 1.199 27.2875 1.28078C27.2045 1.36256 27.139 1.44937 27.09 1.54373C27.0409 1.63809 27.0057 1.73497 26.9856 1.83562C26.9654 1.93627 26.9541 2.03692 26.9541 2.13505C26.9541 2.23318 26.9642 2.33635 26.9856 2.43825C27.0069 2.54016 27.0409 2.6383 27.09 2.7314C27.139 2.8245 27.2045 2.91131 27.2875 2.99183C27.3705 3.07235 27.4724 3.1428 27.5945 3.20319C27.7165 3.26358 27.8612 3.31013 28.0285 3.3441C28.1959 3.37807 28.3896 3.39568 28.6098 3.39568C28.9382 3.39568 29.2087 3.35794 29.4213 3.28372C29.6339 3.20949 29.8012 3.11135 29.9245 2.99183C30.0478 2.87231 30.1334 2.73643 30.1812 2.58671C30.229 2.43699 30.2529 2.28602 30.2529 2.13379Z" fill="var(--fill-0, #252A65)"/>
<path id="Vector_8" d="M36.1824 4.15682L33.4485 1.37386V4.15682H32.3539V0.10567H33.5429L36.2793 2.90122V0.10567H37.3675V4.15682H36.1824Z" fill="var(--fill-0, #252A65)"/>
<path id="Vector_9" d="M44.1613 3.39063H41.903L41.523 4.15682H40.3027L42.4226 0.10567H43.643L45.7629 4.15682H44.5425L44.1626 3.39063H44.1613ZM42.2955 2.59927H43.7763L43.0391 1.10713L42.2955 2.59927Z" fill="var(--fill-0, #252A65)"/>
<path id="Vector_10" d="M50.4048 4.03858C50.2614 4.08639 50.113 4.12664 49.9595 4.16061C49.806 4.19458 49.6449 4.221 49.4738 4.23861C49.3027 4.25623 49.1216 4.26504 48.9266 4.26504C48.5139 4.26504 48.1339 4.221 47.7867 4.13294C47.4395 4.04487 47.1413 3.9115 46.8909 3.73285C46.6406 3.55419 46.4455 3.33276 46.3059 3.06604C46.1662 2.79932 46.097 2.48857 46.097 2.13252C46.097 1.77647 46.1662 1.46572 46.3059 1.19899C46.4455 0.932273 46.6406 0.710837 46.8909 0.532184C47.1413 0.353531 47.4407 0.221433 47.7867 0.132106C48.1327 0.0427795 48.5139 1.05706e-06 48.9266 1.05706e-06C49.1216 1.05706e-06 49.304 0.00881067 49.4738 0.0264244C49.6437 0.0440381 49.806 0.070458 49.9595 0.104427C50.113 0.138397 50.2614 0.179915 50.4048 0.226465C50.5483 0.273016 50.6904 0.327114 50.8326 0.386245V1.37136C50.7206 1.31097 50.6024 1.25058 50.4791 1.19019C50.3558 1.1298 50.2186 1.07569 50.0689 1.02788C49.9192 0.980076 49.7557 0.939816 49.577 0.909621C49.3984 0.879426 49.1971 0.86433 48.9731 0.86433C48.6296 0.86433 48.344 0.899561 48.1163 0.970016C47.8886 1.04047 47.7074 1.13483 47.5728 1.25309C47.4382 1.37136 47.3413 1.50597 47.2872 1.6582C47.2331 1.81044 47.2042 1.9677 47.2042 2.13126C47.2042 2.23946 47.2155 2.3464 47.2394 2.45082C47.2633 2.55524 47.3023 2.65464 47.3577 2.749C47.413 2.84336 47.4848 2.92891 47.5728 3.00692C47.6609 3.08492 47.7716 3.15286 47.9025 3.21073C48.0333 3.2686 48.188 3.31264 48.3642 3.34535C48.5403 3.37806 48.7429 3.39441 48.9731 3.39441C49.2033 3.39441 49.3984 3.38058 49.577 3.35164C49.7557 3.3227 49.9205 3.28496 50.0689 3.23841C50.2174 3.19185 50.3545 3.13776 50.4791 3.07737C50.6036 3.01698 50.7206 2.95659 50.8326 2.89368V3.87879C50.6917 3.93792 50.5483 3.99077 50.4048 4.03858Z" fill="var(--fill-0, #252A65)"/>
<path id="Vector_11" d="M55.1375 3.39063H52.8792L52.4992 4.15682H51.2789L53.3988 0.10567H54.6192L56.7391 4.15682H55.5187L55.1388 3.39063H55.1375ZM53.2705 2.59927H54.7513L54.014 1.10713L53.2705 2.59927Z" fill="var(--fill-0, #252A65)"/>
<path id="Vector_12" d="M62.3643 2.12751C62.3643 2.38668 62.3354 2.61692 62.2788 2.81947C62.2222 3.02203 62.1417 3.19691 62.0385 3.34537C61.9353 3.49383 61.812 3.62215 61.6674 3.72532C61.5227 3.82848 61.3616 3.91278 61.1855 3.97569C61.0094 4.03859 60.8181 4.08388 60.613 4.11282C60.408 4.14176 60.1954 4.1556 59.9727 4.1556H57.4011V0.104446H59.9664C60.1891 0.104446 60.4017 0.118285 60.6068 0.147221C60.8118 0.176158 61.0018 0.22145 61.1805 0.284356C61.3591 0.347262 61.5202 0.430296 61.6661 0.533462C61.812 0.636628 61.9353 0.763701 62.0385 0.913417C62.1417 1.06313 62.2222 1.23927 62.2788 1.43931C62.3354 1.63935 62.3643 1.86833 62.3643 2.12625V2.12751ZM61.2622 2.12751C61.2622 1.9325 61.2371 1.76391 61.1867 1.62048C61.1364 1.47706 61.0559 1.35879 60.9452 1.26569C60.8345 1.17259 60.6885 1.10214 60.5099 1.05684C60.3312 1.01155 60.1123 0.98765 59.8557 0.98765H58.4969V3.27617H59.8557C60.1136 3.27617 60.3312 3.25352 60.5099 3.20697C60.6885 3.16042 60.8332 3.08996 60.9452 2.99435C61.0572 2.89873 61.1364 2.77921 61.1867 2.63579C61.2371 2.49236 61.2622 2.32377 61.2622 2.12876V2.12751Z" fill="var(--fill-0, #252A65)"/>
<path id="Vector_13" d="M63.362 4.15682V0.10567H67.4634V0.970003H64.4855V1.63932H67.3099V2.50365H64.4855V3.29375H67.505V4.15808H63.362V4.15682Z" fill="var(--fill-0, #252A65)"/>
<path id="Vector_14" d="M73.7109 4.15682V1.31095L72.2074 4.15682H71.1581L69.6547 1.31095V4.15682H68.5601V0.10567H70.046L71.6828 3.17298L73.3196 0.10567H74.8004V4.15682H73.7121H73.7109Z" fill="var(--fill-0, #252A65)"/>
<path id="Vector_15" d="M78.6088 2.50239V4.15682H77.518V2.50239L75.5541 0.10567H76.7808L78.0666 1.73619L79.3461 0.10567H80.5728L78.6088 2.50239Z" fill="var(--fill-0, #252A65)"/>
</g>
</svg>
