<svg preserveAspectRatio="none" width="100%" height="100%" overflow="visible" style="display: block;" viewBox="0 0 25 25" fill="none" xmlns="http://www.w3.org/2000/svg">
<g id="linkedin-line">
<path id="Vector" d="M12.5017 9.94862C13.457 8.97281 14.7007 8.33398 16.1475 8.33398C19.3115 8.33398 21.8766 10.899 21.8766 14.0632V21.8757H19.7933V14.0632C19.7933 12.0496 18.161 10.4173 16.1475 10.4173C14.1339 10.4173 12.5017 12.0496 12.5017 14.0632V21.8757H10.4183V8.85482H12.5017V9.94862ZM5.20996 6.77148C4.34701 6.77148 3.64746 6.07193 3.64746 5.20898C3.64746 4.34604 4.34701 3.64648 5.20996 3.64648C6.0729 3.64648 6.77246 4.34604 6.77246 5.20898C6.77246 6.07193 6.0729 6.77148 5.20996 6.77148ZM4.16829 8.85482H6.25163V21.8757H4.16829V8.85482Z" fill="var(--fill-0, white)"/>
</g>
</svg>
