<svg preserveAspectRatio="none" width="100%" height="100%" overflow="visible" style="display: block;" viewBox="0 0 25 25" fill="none" xmlns="http://www.w3.org/2000/svg">
<g id="facebook-line">
<path id="Vector" d="M13.543 9.37565H18.2305L17.7096 11.459H13.543V20.834H11.4596V11.459H7.29297V9.37565H11.4596V7.42541C11.4596 5.56808 11.6531 4.89457 12.0162 4.21556C12.3793 3.53655 12.9122 3.00365 13.5912 2.64052C14.2703 2.27737 14.9437 2.08398 16.8011 2.08398C17.3448 2.08398 17.8213 2.13607 18.2305 2.24023V4.16732H16.8011C15.4222 4.16732 15.0023 4.2484 14.5737 4.47762C14.2578 4.6466 14.0222 4.8821 13.8533 5.19806C13.624 5.62665 13.543 6.04656 13.543 7.42541V9.37565Z" fill="var(--fill-0, white)"/>
</g>
</svg>
