<svg preserveAspectRatio="none" width="100%" height="100%" overflow="visible" style="display: block;" viewBox="0 0 113.809 18.2478" fill="none" xmlns="http://www.w3.org/2000/svg">
<g id="Group">
<path id="Vector" d="M27.4097 3.92789H3.29777C1.47601 3.92789 0.000228882 2.45212 0.000228882 0.630359V0.40138H25.374L27.4097 3.92664V3.92789Z" fill="url(#paint0_linear_0_210)"/>
<path id="Vector_2" d="M30.2481 8.84462H9.78353C8.24359 8.84462 6.99553 7.59656 6.99553 6.05662V5.86287H28.5283L30.2494 8.84336L30.2481 8.84462Z" fill="url(#paint1_linear_0_210)"/>
<path id="Vector_3" d="M32.9227 13.477H17.1119C15.5719 13.477 14.3239 12.229 14.3239 10.689V10.4966H31.2016L32.9227 13.477Z" fill="url(#paint2_linear_0_210)"/>
<path id="Vector_4" d="M35.6766 18.2478H26.8597C25.3198 18.2478 24.0717 16.9998 24.0717 15.4598V15.2661H33.9555L35.6766 18.2478Z" fill="url(#paint3_linear_0_210)"/>
<path id="Vector_5" d="M86.9968 3.68002H110.583C112.364 3.68002 113.809 2.23695 113.809 0.454193V0.230244H88.9871L86.9955 3.67876L86.9968 3.68002Z" fill="url(#paint4_linear_0_210)"/>
<path id="Vector_6" d="M84.2201 8.48987H104.239C105.747 8.48987 106.967 7.26823 106.967 5.76352V5.5748H85.9035L84.2201 8.49112V8.48987Z" fill="url(#paint5_linear_0_210)"/>
<path id="Vector_7" d="M81.6047 13.0203H97.0708C98.5767 13.0203 99.7971 11.7987 99.7971 10.2927V10.104H83.2868L81.6034 13.0203H81.6047Z" fill="url(#paint6_linear_0_210)"/>
<path id="Vector_8" d="M78.9109 17.6867H87.5353C89.0413 17.6867 90.2617 16.4651 90.2617 14.9591V14.7704H80.593L78.9096 17.6867H78.9109Z" fill="url(#paint7_linear_0_210)"/>
<g id="Group_2">
<path id="Vector_9" d="M36.4501 1.99538V8.41683H34.495V1.99538H31.4214V0.208849H39.5287V1.99538H36.4501Z" fill="var(--fill-0, #252A65)"/>
<path id="Vector_10" d="M40.8199 8.4181V0.210114H42.775V8.4181H40.8199Z" fill="var(--fill-0, #252A65)"/>
<path id="Vector_11" d="M49.7066 0C50.4162 0 51.0767 0.0691985 51.6856 0.206334C52.2958 0.343469 52.8544 0.519604 53.364 0.734743V2.74145C53.1639 2.61438 52.9375 2.49108 52.6871 2.37156C52.4355 2.25204 52.1625 2.14635 51.8668 2.05451C51.5712 1.96267 51.2554 1.8897 50.9182 1.83308C50.581 1.77773 50.2262 1.75005 49.8538 1.75005C49.3896 1.75005 48.9857 1.78779 48.641 1.86328C48.2963 1.93877 48.0019 2.04067 47.7553 2.16775C47.5087 2.29482 47.3074 2.44327 47.1489 2.61312C46.9903 2.78296 46.8658 2.96288 46.7739 3.15411C46.6821 3.34535 46.6192 3.54035 46.584 3.73914C46.5487 3.93792 46.5311 4.13167 46.5311 4.31913C46.5311 4.48269 46.5462 4.66008 46.5764 4.85132C46.6066 5.04255 46.662 5.23379 46.745 5.42502C46.828 5.61625 46.9425 5.79994 47.091 5.97482C47.2382 6.1497 47.4307 6.30571 47.6685 6.44033C47.905 6.5762 48.1906 6.6844 48.5252 6.76618C48.8586 6.84796 49.2562 6.88822 49.7167 6.88822C49.9482 6.88822 50.1507 6.88067 50.3231 6.86431C50.4955 6.84796 50.6527 6.82657 50.7949 6.79889C50.9371 6.77121 51.0704 6.73724 51.195 6.69698C51.3195 6.65672 51.4491 6.61521 51.5825 6.57117V5.57977H49.3896V3.78191H53.5376V7.97524C53.2772 8.07463 52.9865 8.16521 52.6657 8.24699C52.3436 8.32876 52.0115 8.39796 51.6693 8.45584C51.3271 8.51371 50.9836 8.55774 50.6389 8.59046C50.2942 8.62191 49.9696 8.63826 49.6638 8.63826C49.1895 8.63826 48.7341 8.60304 48.2988 8.53132C47.8635 8.45961 47.4558 8.3489 47.0784 8.19918C46.701 8.04946 46.3562 7.85949 46.0455 7.62925C45.7347 7.39776 45.4693 7.12348 45.2491 6.80518C45.0289 6.48688 44.8591 6.12076 44.7383 5.70936C44.6175 5.29795 44.5559 4.8337 44.5559 4.32039C44.5559 3.80708 44.6188 3.34912 44.7458 2.93394C44.8717 2.52002 45.049 2.1539 45.2755 1.83434C45.502 1.51603 45.775 1.24051 46.092 1.01027C46.4103 0.778777 46.7601 0.588801 47.1413 0.440343C47.5225 0.290626 47.9301 0.179913 48.3642 0.1082C48.7982 0.0364875 49.2449 0.00125935 49.7054 0.00125935L49.7066 0Z" fill="var(--fill-0, #252A65)"/>
<path id="Vector_12" d="M55.6424 8.4181V0.210114H62.9747V1.96016H57.6503V3.31642H62.7004V5.06646H57.6503V6.66805H63.0477V8.4181H55.6411H55.6424Z" fill="var(--fill-0, #252A65)"/>
<path id="Vector_13" d="M66.8902 8.4181H64.9351V0.210114H69.8367C70.3639 0.210114 70.8105 0.271762 71.1779 0.395058C71.5453 0.518354 71.8434 0.693232 72.0737 0.920952C72.3039 1.14741 72.4713 1.42168 72.5744 1.74251C72.6776 2.06333 72.7304 2.42063 72.7304 2.81442C72.7304 3.16041 72.6876 3.46361 72.6008 3.72279C72.5153 3.98196 72.3983 4.20339 72.2536 4.38833C72.1077 4.57328 71.9378 4.72929 71.7453 4.85762C71.5516 4.98469 71.3478 5.09037 71.1339 5.17466L73.5054 8.4181H71.2182L69.0253 5.39483H66.8902V8.4181ZM70.7552 2.80184C70.7552 2.64206 70.7363 2.50744 70.6998 2.39547C70.6633 2.2835 70.5992 2.19291 70.5073 2.12372C70.4155 2.05452 70.2934 2.00294 70.1412 1.97148C69.989 1.94003 69.7977 1.92367 69.5688 1.92367H66.8915V3.68001H69.5688C69.7977 3.68001 69.9877 3.66366 70.1412 3.6322C70.2934 3.60075 70.4167 3.54917 70.5073 3.47997C70.5992 3.41077 70.6633 3.32019 70.6998 3.20822C70.7363 3.09624 70.7552 2.96162 70.7552 2.80184Z" fill="var(--fill-0, #252A65)"/>
<path id="Vector_14" d="M81.5813 2.5213C81.4442 2.44581 81.263 2.36026 81.0378 2.26464C80.8126 2.16902 80.5585 2.07844 80.2729 1.99289C79.9885 1.90733 79.6791 1.83562 79.3456 1.77775C79.0122 1.71987 78.6688 1.69094 78.3178 1.69094C78.0359 1.69094 77.7969 1.701 77.5981 1.72113C77.3993 1.74126 77.232 1.76642 77.0974 1.79913C76.9615 1.83059 76.8546 1.86833 76.7753 1.90985C76.696 1.95137 76.6357 1.99415 76.5929 2.03818C76.5514 2.08221 76.5237 2.12625 76.5111 2.16902C76.4985 2.21306 76.4922 2.25206 76.4922 2.28855C76.4922 2.40807 76.5451 2.51249 76.6508 2.60182C76.7564 2.69114 76.8999 2.77166 77.0835 2.84086C77.266 2.91006 77.4786 2.97674 77.7214 3.03838C77.9642 3.10003 78.2209 3.1642 78.4939 3.22962C78.7657 3.29504 79.0475 3.36676 79.3368 3.44476C79.6262 3.52276 79.908 3.61335 80.1798 3.71651C80.4515 3.81968 80.7095 3.94046 80.9523 4.07759C81.1951 4.21473 81.4077 4.37577 81.5901 4.5582C81.7726 4.74188 81.9173 4.95199 82.0229 5.19103C82.1286 5.43008 82.1815 5.70309 82.1815 6.01007C82.1815 6.40386 82.1198 6.7423 81.9965 7.02537C81.8732 7.30845 81.7097 7.54749 81.5033 7.7425C81.2983 7.93751 81.0592 8.09352 80.7887 8.21178C80.5182 8.32879 80.2339 8.41937 79.937 8.48354C79.6401 8.5477 79.3394 8.58922 79.0362 8.60935C78.7317 8.62948 78.4436 8.63955 78.1693 8.63955C77.4522 8.63955 76.7891 8.57286 76.179 8.4395C75.5688 8.30614 75.0303 8.14007 74.5635 7.94129V5.98239C75.0454 6.2856 75.5939 6.52213 76.2104 6.69323C76.8269 6.86434 77.4874 6.94988 78.1894 6.94988C78.6046 6.94988 78.9418 6.92472 79.2047 6.87566C79.4664 6.82533 79.6715 6.76243 79.8187 6.68442C79.9659 6.60642 80.0666 6.52213 80.1194 6.43028C80.1722 6.33844 80.1987 6.25163 80.1987 6.16733C80.1987 6.03649 80.1458 5.922 80.0401 5.82387C79.9345 5.72573 79.791 5.64018 79.6073 5.56721C79.4249 5.49298 79.2123 5.4263 78.9695 5.36465C78.7267 5.30301 78.47 5.24136 78.197 5.17971C77.924 5.11806 77.6447 5.05138 77.3566 4.97967C77.0684 4.90795 76.7879 4.82366 76.5161 4.72553C76.2431 4.62739 75.9865 4.51416 75.7436 4.38458C75.5008 4.25499 75.2882 4.1015 75.1058 3.9241C74.9234 3.74671 74.7787 3.54163 74.673 3.30888C74.5673 3.07613 74.5145 2.80563 74.5145 2.49991C74.5145 2.13757 74.5711 1.8243 74.683 1.56261C74.795 1.30092 74.9473 1.07571 75.1385 0.89077C75.3297 0.705826 75.5512 0.554853 75.8028 0.440364C76.0544 0.324617 76.3186 0.235292 76.5967 0.171128C76.8747 0.106964 77.1553 0.0641867 77.4396 0.0402824C77.7239 0.0163781 77.9944 0.00379576 78.2511 0.00379576C78.5316 0.00379576 78.821 0.020152 79.1179 0.051605C79.4148 0.083058 79.708 0.128351 79.9961 0.186225C80.2842 0.244099 80.5623 0.310779 80.8315 0.386266C81.1007 0.461753 81.3486 0.541014 81.5776 0.625308V2.52507L81.5813 2.5213Z" fill="var(--fill-0, #252A65)"/>
</g>
<g id="Group_3">
<path id="Vector_15" d="M45.5326 11.9509L46.8272 15.9391L48.2288 11.9509H49.6492L47.6123 17.6955H46.0925L44.7677 13.833L43.4467 17.6955H41.9269L39.8874 11.9509H41.3116L42.6842 15.8561L44.009 11.9509H45.5326Z" fill="var(--fill-0, #252A65)"/>
<path id="Vector_16" d="M50.5201 17.6955V11.9509H51.889V17.6955H50.5201Z" fill="var(--fill-0, #252A65)"/>
<path id="Vector_17" d="M58.2635 17.6955L54.844 13.7487V17.6955H53.4751V11.9509H54.9622L58.3856 15.914V11.9509H59.7469V17.6955H58.2635Z" fill="var(--fill-0, #252A65)"/>
<path id="Vector_18" d="M64.5975 11.805C65.0944 11.805 65.5562 11.8528 65.9827 11.9497C66.4092 12.0453 66.8004 12.1686 67.1577 12.3195V13.7249C67.0181 13.6355 66.8596 13.5487 66.6834 13.4657C66.5073 13.3827 66.3161 13.3084 66.1097 13.2443C65.9034 13.1801 65.682 13.1285 65.4454 13.0895C65.2089 13.0505 64.9611 13.0304 64.7006 13.0304C64.376 13.0304 64.093 13.0568 63.8527 13.1096C63.6111 13.1625 63.4048 13.2342 63.2324 13.3223C63.06 13.4116 62.9191 13.5148 62.8084 13.6343C62.6977 13.7525 62.6109 13.8784 62.5467 14.013C62.4826 14.1463 62.4385 14.2835 62.4134 14.4231C62.3882 14.5628 62.3769 14.6974 62.3769 14.8282C62.3769 14.9427 62.3869 15.066 62.4083 15.2006C62.4297 15.3353 62.4687 15.4686 62.5266 15.602C62.5845 15.7353 62.665 15.8637 62.7682 15.987C62.8713 16.1103 63.0059 16.2185 63.172 16.3128C63.3381 16.4072 63.5381 16.4839 63.7709 16.5405C64.0049 16.5972 64.2829 16.6261 64.605 16.6261C64.7673 16.6261 64.9082 16.6211 65.029 16.6097C65.1498 16.5984 65.2592 16.5833 65.3586 16.5632C65.458 16.5443 65.5511 16.5204 65.6392 16.4927C65.726 16.4651 65.8166 16.4361 65.9109 16.4047V15.7102H64.376V14.4521H67.2798V17.3873C67.0974 17.4565 66.8948 17.5206 66.6696 17.5772C66.4444 17.6351 66.2116 17.6829 65.9726 17.7232C65.7323 17.7634 65.492 17.7949 65.2517 17.8175C65.0101 17.8402 64.7837 17.8515 64.5698 17.8515C64.2376 17.8515 63.9193 17.8263 63.6149 17.776C63.3104 17.7257 63.0248 17.649 62.7606 17.5445C62.4964 17.4401 62.2548 17.3067 62.0372 17.1457C61.8195 16.9834 61.6333 16.7922 61.4798 16.5682C61.3264 16.3443 61.2068 16.0901 61.1225 15.8008C61.0382 15.5127 60.9955 15.1881 60.9955 14.8282C60.9955 14.4684 61.0395 14.1476 61.1288 13.8582C61.2169 13.5689 61.3414 13.3122 61.5 13.0895C61.6585 12.8668 61.8497 12.6743 62.0712 12.512C62.2938 12.351 62.5379 12.2176 62.8046 12.1132C63.0714 12.0088 63.357 11.9308 63.6602 11.8817C63.9634 11.8314 64.2766 11.8062 64.5987 11.8062L64.5975 11.805Z" fill="var(--fill-0, #252A65)"/>
<path id="Vector_19" d="M73.4203 13.5689C73.3247 13.516 73.1977 13.4556 73.0404 13.389C72.8831 13.3223 72.7045 13.2581 72.5057 13.199C72.3069 13.1386 72.0905 13.0883 71.8565 13.048C71.6225 13.0077 71.3834 12.9876 71.1369 12.9876C70.9406 12.9876 70.772 12.9952 70.6336 13.009C70.4952 13.0228 70.3782 13.0404 70.2826 13.0631C70.1882 13.0857 70.1127 13.1109 70.0574 13.1398C70.002 13.1688 69.9593 13.199 69.9303 13.2292C69.9014 13.2594 69.8812 13.2908 69.8724 13.321C69.8636 13.3512 69.8599 13.3801 69.8599 13.404C69.8599 13.4871 69.8963 13.5613 69.9706 13.623C70.0448 13.6859 70.1455 13.7412 70.2725 13.7903C70.4009 13.8394 70.5493 13.8846 70.7192 13.9287C70.889 13.9715 71.0689 14.0168 71.2589 14.062C71.4489 14.1073 71.6464 14.1577 71.849 14.213C72.0515 14.2684 72.249 14.3313 72.439 14.403C72.629 14.476 72.8102 14.5603 72.9787 14.6559C73.1486 14.7515 73.297 14.8647 73.4254 14.9918C73.5537 15.1201 73.6544 15.2673 73.7273 15.4347C73.8016 15.602 73.838 15.7932 73.838 16.0071C73.838 16.2826 73.7953 16.5204 73.7085 16.7179C73.6229 16.9155 73.5072 17.0828 73.3637 17.2199C73.2203 17.3571 73.053 17.4665 72.8643 17.5483C72.6743 17.6301 72.4768 17.6942 72.2679 17.7383C72.0603 17.7823 71.8502 17.8125 71.6376 17.8263C71.425 17.8402 71.2224 17.8477 71.0312 17.8477C70.5292 17.8477 70.0649 17.8012 69.6384 17.7081C69.2119 17.615 68.8345 17.498 68.5074 17.3596V15.9882C68.8446 16.1996 69.2283 16.3657 69.6598 16.4864C70.0914 16.606 70.5531 16.6664 71.045 16.6664C71.3356 16.6664 71.5722 16.6487 71.7546 16.6135C71.9383 16.5783 72.0804 16.5343 72.1849 16.4802C72.288 16.4261 72.3585 16.3669 72.395 16.3028C72.4315 16.2386 72.4503 16.1769 72.4503 16.1191C72.4503 16.0272 72.4138 15.9467 72.3396 15.8788C72.2654 15.8108 72.1647 15.7504 72.0377 15.6989C71.9093 15.6473 71.7609 15.5995 71.591 15.5567C71.4212 15.5139 71.2413 15.4699 71.0513 15.4271C70.8613 15.3843 70.6651 15.3378 70.4625 15.2875C70.2599 15.2371 70.0649 15.178 69.8737 15.1101C69.6825 15.0421 69.5026 14.9629 69.334 14.8723C69.1641 14.7817 69.0157 14.6747 68.8873 14.5502C68.759 14.4256 68.6584 14.2822 68.5854 14.1199C68.5112 13.9564 68.4747 13.7676 68.4747 13.5538C68.4747 13.2996 68.5137 13.0807 68.5929 12.897C68.6709 12.7133 68.7779 12.5561 68.9125 12.4265C69.0471 12.2969 69.2019 12.1912 69.3767 12.1107C69.5516 12.0302 69.7378 11.9673 69.9316 11.922C70.1253 11.8779 70.3229 11.8465 70.5216 11.8301C70.7204 11.8138 70.9104 11.805 71.089 11.805C71.2853 11.805 71.4879 11.8163 71.6955 11.8389C71.903 11.8616 72.1081 11.893 72.3094 11.9333C72.5107 11.9736 72.7057 12.0201 72.8945 12.073C73.0832 12.1258 73.2568 12.1812 73.4166 12.2403V13.5701L73.4203 13.5689Z" fill="var(--fill-0, #252A65)"/>
</g>
</g>
<defs>
<linearGradient id="paint0_linear_0_210" x1="0.000228882" y1="2.16527" x2="27.4097" y2="2.16527" gradientUnits="userSpaceOnUse">
<stop stop-color="#282D6F"/>
<stop offset="0.13" stop-color="#273677"/>
<stop offset="0.33" stop-color="#254F8D"/>
<stop offset="0.59" stop-color="#2278B1"/>
<stop offset="0.9" stop-color="#1EB0E2"/>
<stop offset="1" stop-color="#1DC4F4"/>
</linearGradient>
<linearGradient id="paint1_linear_0_210" x1="6.99553" y1="7.355" x2="30.2481" y2="7.355" gradientUnits="userSpaceOnUse">
<stop stop-color="#282D6F"/>
<stop offset="0.13" stop-color="#273878"/>
<stop offset="0.36" stop-color="#245693"/>
<stop offset="0.67" stop-color="#2187BE"/>
<stop offset="1" stop-color="#1DC4F4"/>
</linearGradient>
<linearGradient id="paint2_linear_0_210" x1="14.3239" y1="11.9862" x2="32.9227" y2="11.9862" gradientUnits="userSpaceOnUse">
<stop offset="0.03" stop-color="#282D6F"/>
<stop offset="0.25" stop-color="#254A89"/>
<stop offset="0.73" stop-color="#2096CC"/>
<stop offset="1" stop-color="#1DC4F4"/>
</linearGradient>
<linearGradient id="paint3_linear_0_210" x1="21.3366" y1="16.7569" x2="34.3858" y2="16.7569" gradientUnits="userSpaceOnUse">
<stop offset="0.19" stop-color="#282D6F"/>
<stop offset="1" stop-color="#1DC4F4"/>
</linearGradient>
<linearGradient id="paint4_linear_0_210" x1="113.81" y1="1.95513" x2="86.9977" y2="1.95513" gradientUnits="userSpaceOnUse">
<stop stop-color="#282D6F"/>
<stop offset="0.13" stop-color="#273677"/>
<stop offset="0.33" stop-color="#254F8D"/>
<stop offset="0.59" stop-color="#2278B1"/>
<stop offset="0.9" stop-color="#1EB0E2"/>
<stop offset="1" stop-color="#1DC4F4"/>
</linearGradient>
<linearGradient id="paint5_linear_0_210" x1="106.968" y1="7.0317" x2="84.2211" y2="7.0317" gradientUnits="userSpaceOnUse">
<stop stop-color="#282D6F"/>
<stop offset="0.13" stop-color="#273677"/>
<stop offset="0.33" stop-color="#254F8D"/>
<stop offset="0.59" stop-color="#2278B1"/>
<stop offset="0.9" stop-color="#1EB0E2"/>
<stop offset="1" stop-color="#1DC4F4"/>
</linearGradient>
<linearGradient id="paint6_linear_0_210" x1="99.7981" y1="11.5634" x2="81.6056" y2="11.5634" gradientUnits="userSpaceOnUse">
<stop stop-color="#282D6F"/>
<stop offset="0.13" stop-color="#273677"/>
<stop offset="0.33" stop-color="#254F8D"/>
<stop offset="0.59" stop-color="#2278B1"/>
<stop offset="0.9" stop-color="#1EB0E2"/>
<stop offset="1" stop-color="#1DC4F4"/>
</linearGradient>
<linearGradient id="paint7_linear_0_210" x1="90.2626" y1="16.2285" x2="78.9106" y2="16.2285" gradientUnits="userSpaceOnUse">
<stop stop-color="#282D6F"/>
<stop offset="0.13" stop-color="#273677"/>
<stop offset="0.33" stop-color="#254F8D"/>
<stop offset="0.59" stop-color="#2278B1"/>
<stop offset="0.9" stop-color="#1EB0E2"/>
<stop offset="1" stop-color="#1DC4F4"/>
</linearGradient>
</defs>
</svg>
