<svg preserveAspectRatio="none" width="100%" height="100%" overflow="visible" style="display: block;" viewBox="0 0 23.9989 23.9989" fill="none" xmlns="http://www.w3.org/2000/svg">
<g id="Icon">
<path id="Vector" d="M15.9999 20.9993V18.9993C15.9999 17.9384 15.5785 16.921 14.8283 16.1709C14.0782 15.4207 13.0608 14.9993 11.9999 14.9993H5.99991C4.93904 14.9993 3.92163 15.4207 3.17148 16.1709C2.42134 16.921 1.99991 17.9384 1.99991 18.9993V20.9993" stroke="var(--stroke-0, white)" stroke-width="1.99991" stroke-linecap="round" stroke-linejoin="round"/>
<path id="Vector_2" d="M9 11C11.2091 11 13 9.20914 13 7C13 4.79086 11.2091 3 9 3C6.79086 3 5 4.79086 5 7C5 9.20914 6.79086 11 9 11Z" stroke="var(--stroke-0, white)" stroke-width="1.99991" stroke-linecap="round" stroke-linejoin="round"/>
<path id="Vector_3" d="M21.9991 20.9993V18.9993C21.9985 18.113 21.7035 17.2521 21.1605 16.5516C20.6175 15.8512 19.8573 15.3509 18.9991 15.1293" stroke="var(--stroke-0, white)" stroke-width="1.99991" stroke-linecap="round" stroke-linejoin="round"/>
<path id="Vector_4" d="M15.9993 3.12986C16.8597 3.35016 17.6223 3.85056 18.1669 4.55217C18.7115 5.25378 19.0071 6.11669 19.0071 7.00486C19.0071 7.89303 18.7115 8.75594 18.1669 9.45755C17.6223 10.1592 16.8597 10.6596 15.9993 10.8799" stroke="var(--stroke-0, white)" stroke-width="1.99991" stroke-linecap="round" stroke-linejoin="round"/>
</g>
</svg>
