<svg preserveAspectRatio="none" width="100%" height="100%" overflow="visible" style="display: block;" viewBox="0 0 32.7556 32.7556" fill="none" xmlns="http://www.w3.org/2000/svg">
<g id="Group">
<path id="Vector" d="M0 32.7556L2.3151 24.3487C0.883805 21.8812 0.132962 19.0867 0.140783 16.2299C0.140783 7.27815 7.46151 0 16.4482 0C20.8124 0 24.9108 1.68915 27.9846 4.7561C31.0661 7.82304 32.7634 11.9019 32.7555 16.2377C32.7555 25.1894 25.4348 32.4676 16.4403 32.4676H16.4325C13.7029 32.4676 11.0202 31.7826 8.6347 30.4904L0 32.7556ZM9.04923 27.5558L9.54197 27.8516C11.6224 29.0815 14.0079 29.7276 16.4403 29.7353H16.4482C23.9175 29.7353 30.0025 23.6871 30.0025 16.2455C30.0025 12.6414 28.5946 9.25532 26.0371 6.70213C23.4795 4.14894 20.0694 2.74779 16.4482 2.74779C8.97884 2.74001 2.89388 8.78827 2.89388 16.2299C2.89388 18.7753 3.60561 21.2584 4.96652 23.4068L5.28719 23.9206L3.91846 28.8947L9.04923 27.5558Z" fill="var(--fill-0, white)"/>
<path id="Vector_2" d="M0.570983 32.1873L2.80787 24.0685C1.4235 21.6943 0.696124 18.9932 0.696124 16.2377C0.703945 7.5973 7.76657 0.568234 16.4482 0.568234C20.6639 0.568234 24.6136 2.2029 27.5857 5.16087C30.5578 8.11883 32.1924 12.0576 32.1924 16.2455C32.1924 24.8858 25.122 31.9149 16.4482 31.9149H16.4404C13.8046 31.9149 11.2158 31.2532 8.9163 30.0078L0.570983 32.1873Z" fill="url(#paint0_linear_0_134)"/>
<path id="Vector_3" d="M0 32.7556L2.3151 24.3487C0.883805 21.8812 0.132962 19.0867 0.140783 16.2299C0.140783 7.27815 7.46151 0 16.4482 0C20.8124 0 24.9108 1.68915 27.9846 4.7561C31.0661 7.82304 32.7634 11.9019 32.7555 16.2377C32.7555 25.1894 25.4348 32.4676 16.4403 32.4676H16.4325C13.7029 32.4676 11.0202 31.7826 8.6347 30.4904L0 32.7556ZM9.04923 27.5558L9.54197 27.8516C11.6224 29.0815 14.0079 29.7276 16.4403 29.7353H16.4482C23.9175 29.7353 30.0025 23.6871 30.0025 16.2455C30.0025 12.6414 28.5946 9.25532 26.0371 6.70213C23.4795 4.14894 20.0694 2.74779 16.4482 2.74779C8.97884 2.74001 2.89388 8.78827 2.89388 16.2299C2.89388 18.7753 3.60561 21.2584 4.96652 23.4068L5.28719 23.9206L3.91846 28.8947L9.04923 27.5558Z" fill="url(#paint1_linear_0_134)"/>
<path id="Vector_4" fill-rule="evenodd" clip-rule="evenodd" d="M12.3732 9.44214C12.0681 8.76492 11.7475 8.74935 11.4581 8.74157C11.2234 8.73379 10.9497 8.73379 10.6759 8.73379C10.4022 8.73379 9.9642 8.83498 9.58878 9.23975C9.21335 9.64453 8.1653 10.6253 8.1653 12.6258C8.1653 14.6186 9.62788 16.549 9.83124 16.8215C10.0346 17.0939 12.6547 21.3207 16.7922 22.9476C20.2335 24.302 20.9375 24.0296 21.6805 23.9595C22.4235 23.8895 24.0894 22.9787 24.4336 22.0291C24.7699 21.0794 24.7699 20.2699 24.6682 20.0986C24.5665 19.9274 24.2928 19.8262 23.8861 19.6238C23.4794 19.4214 21.4771 18.4406 21.1017 18.3005C20.7263 18.1681 20.4525 18.0981 20.1866 18.5029C19.9129 18.9076 19.1307 19.8184 18.8961 20.0908C18.6615 20.3633 18.419 20.3944 18.0123 20.192C17.6056 19.9896 16.2916 19.5615 14.7352 18.1759C13.5229 17.1017 12.7016 15.7706 12.467 15.3659C12.2324 14.9611 12.4435 14.7431 12.6469 14.5407C12.8268 14.3617 13.0536 14.0659 13.257 13.8324C13.4603 13.5989 13.5307 13.4276 13.6637 13.1552C13.7966 12.8827 13.7341 12.6492 13.6324 12.4468C13.5307 12.2522 12.7329 10.2439 12.3732 9.44214Z" fill="var(--fill-0, white)"/>
</g>
<defs>
<linearGradient id="paint0_linear_0_134" x1="16.3809" y1="32.1858" x2="16.3809" y2="0.567128" gradientUnits="userSpaceOnUse">
<stop stop-color="#20B038"/>
<stop offset="1" stop-color="#60D66A"/>
</linearGradient>
<linearGradient id="paint1_linear_0_134" x1="16.381" y1="32.7525" x2="16.381" y2="0" gradientUnits="userSpaceOnUse">
<stop stop-color="#F9F9F9"/>
<stop offset="1" stop-color="white"/>
</linearGradient>
</defs>
</svg>
